<?xml version="1.0" encoding="utf-8" standalone="no"?>
<!DOCTYPE svg PUBLIC "-//W3C//DTD SVG 1.1//EN"
  "http://www.w3.org/Graphics/SVG/1.1/DTD/svg11.dtd">
<svg xmlns:xlink="http://www.w3.org/1999/xlink" width="864pt" height="504pt" viewBox="0 0 864 504" xmlns="http://www.w3.org/2000/svg" version="1.1">
 <metadata>
  <rdf:RDF xmlns:dc="http://purl.org/dc/elements/1.1/" xmlns:cc="http://creativecommons.org/ns#" xmlns:rdf="http://www.w3.org/1999/02/22-rdf-syntax-ns#">
   <cc:Work>
    <dc:type rdf:resource="http://purl.org/dc/dcmitype/StillImage"/>
    <dc:date>2023-09-10T13:02:19.646557</dc:date>
    <dc:format>image/svg+xml</dc:format>
    <dc:creator>
     <cc:Agent>
      <dc:title>Matplotlib v3.7.2, https://matplotlib.org/</dc:title>
     </cc:Agent>
    </dc:creator>
   </cc:Work>
  </rdf:RDF>
 </metadata>
 <defs>
  <style type="text/css">*{stroke-linejoin: round; stroke-linecap: butt}</style>
 </defs>
 <g id="figure_1">
  <g id="patch_1">
   <path d="M 0 504 
L 864 504 
L 864 0 
L 0 0 
z
" style="fill: #ffffff"/>
  </g>
  <g id="axes_1">
   <g id="patch_2">
    <path d="M 82.55 400.593468 
L 845.64 400.593468 
L 845.64 40.92 
L 82.55 40.92 
z
" style="fill: #ffffff"/>
   </g>
   <g id="PolyCollection_1">
    <defs>
     <path id="mce200b9df2" d="M 210.471737 -90.62866 
L 208.991596 -90.62866 
L 208.026572 -93.568348 
L 206.494254 -96.508035 
L 204.577384 -99.447722 
L 202.611679 -102.387409 
L 200.663268 -105.327096 
L 198.18598 -108.266783 
L 194.264639 -111.20647 
L 188.426072 -114.146157 
L 181.269254 -117.085844 
L 174.042703 -120.025531 
L 167.312135 -122.965218 
L 160.128104 -125.904905 
L 150.839091 -128.844592 
L 138.989221 -131.784279 
L 126.437848 -134.723966 
L 116.163767 -137.663653 
L 109.484207 -140.60334 
L 104.696664 -143.543027 
L 98.936123 -146.482714 
L 91.40949 -149.422401 
L 84.698051 -152.362088 
L 82.55 -155.301775 
L 85.999085 -158.241463 
L 91.978781 -161.18115 
L 96.172118 -164.120837 
L 96.982487 -167.060524 
L 96.593524 -170.000211 
L 98.375895 -172.939898 
L 103.425042 -175.879585 
L 109.786517 -178.819272 
L 114.862139 -181.758959 
L 118.083406 -184.698646 
L 121.251057 -187.638333 
L 126.571304 -190.57802 
L 134.492551 -193.517707 
L 143.519369 -196.457394 
L 151.862451 -199.397081 
L 158.861927 -202.336768 
L 164.988609 -205.276455 
L 170.904251 -208.216142 
L 176.631532 -211.155829 
L 181.569795 -214.095516 
L 185.172722 -217.035203 
L 187.453602 -219.97489 
L 188.89319 -222.914578 
L 190.028684 -225.854265 
L 191.177378 -228.793952 
L 192.454724 -231.733639 
L 193.901887 -234.673326 
L 195.545709 -237.613013 
L 197.389033 -240.5527 
L 199.347326 -243.492387 
L 201.20384 -246.432074 
L 202.712042 -249.371761 
L 203.78256 -252.311448 
L 204.541981 -255.251135 
L 205.195461 -258.190822 
L 205.831901 -261.130509 
L 206.363429 -264.070196 
L 206.661074 -267.009883 
L 206.744336 -269.94957 
L 206.82057 -272.889257 
L 207.121325 -275.828944 
L 207.695012 -278.768631 
L 208.370512 -281.708318 
L 208.918573 -284.648006 
L 209.224359 -287.587693 
L 209.31586 -290.52738 
L 209.283334 -293.467067 
L 209.205872 -296.406754 
L 209.131227 -299.346441 
L 209.083027 -302.286128 
L 209.069258 -305.225815 
L 209.087293 -308.165502 
L 209.12378 -311.105189 
L 209.152927 -314.044876 
L 209.147163 -316.984563 
L 209.102529 -319.92425 
L 209.055073 -322.863937 
L 209.061176 -325.803624 
L 209.148995 -328.743311 
L 209.288348 -331.682998 
L 209.415365 -334.622685 
L 209.487524 -337.562372 
L 209.512188 -340.502059 
L 209.526727 -343.441746 
L 209.55921 -346.381433 
L 209.608763 -349.321121 
L 209.655432 -352.260808 
L 209.679777 -355.200495 
L 209.672866 -358.140182 
L 209.637317 -361.079869 
L 209.587853 -364.019556 
L 209.549089 -366.959243 
L 209.543229 -369.89893 
L 209.574174 -372.838617 
L 209.62514 -375.778304 
L 209.67336 -378.717991 
L 209.705842 -381.657678 
L 209.757491 -381.657678 
L 209.757491 -381.657678 
L 209.789973 -378.717991 
L 209.838193 -375.778304 
L 209.889159 -372.838617 
L 209.920104 -369.89893 
L 209.914244 -366.959243 
L 209.87548 -364.019556 
L 209.826016 -361.079869 
L 209.790467 -358.140182 
L 209.783556 -355.200495 
L 209.807901 -352.260808 
L 209.85457 -349.321121 
L 209.904124 -346.381433 
L 209.936606 -343.441746 
L 209.951146 -340.502059 
L 209.975809 -337.562372 
L 210.047968 -334.622685 
L 210.174986 -331.682998 
L 210.314339 -328.743311 
L 210.402157 -325.803624 
L 210.40826 -322.863937 
L 210.360805 -319.92425 
L 210.31617 -316.984563 
L 210.310406 -314.044876 
L 210.339553 -311.105189 
L 210.37604 -308.165502 
L 210.394075 -305.225815 
L 210.380307 -302.286128 
L 210.332106 -299.346441 
L 210.257461 -296.406754 
L 210.18 -293.467067 
L 210.147474 -290.52738 
L 210.238975 -287.587693 
L 210.544761 -284.648006 
L 211.092822 -281.708318 
L 211.768321 -278.768631 
L 212.342008 -275.828944 
L 212.642763 -272.889257 
L 212.718997 -269.94957 
L 212.80226 -267.009883 
L 213.099905 -264.070196 
L 213.631432 -261.130509 
L 214.267873 -258.190822 
L 214.921353 -255.251135 
L 215.680773 -252.311448 
L 216.751292 -249.371761 
L 218.259493 -246.432074 
L 220.116007 -243.492387 
L 222.0743 -240.5527 
L 223.917624 -237.613013 
L 225.561446 -234.673326 
L 227.008609 -231.733639 
L 228.285955 -228.793952 
L 229.43465 -225.854265 
L 230.570143 -222.914578 
L 232.009732 -219.97489 
L 234.290611 -217.035203 
L 237.893538 -214.095516 
L 242.831801 -211.155829 
L 248.559083 -208.216142 
L 254.474724 -205.276455 
L 260.601406 -202.336768 
L 267.600883 -199.397081 
L 275.943964 -196.457394 
L 284.970783 -193.517707 
L 292.89203 -190.57802 
L 298.212276 -187.638333 
L 301.379927 -184.698646 
L 304.601195 -181.758959 
L 309.676816 -178.819272 
L 316.038291 -175.879585 
L 321.087439 -172.939898 
L 322.86981 -170.000211 
L 322.480846 -167.060524 
L 323.291215 -164.120837 
L 327.484553 -161.18115 
L 333.464248 -158.241463 
L 336.913333 -155.301775 
L 334.765282 -152.362088 
L 328.053843 -149.422401 
L 320.52721 -146.482714 
L 314.76667 -143.543027 
L 309.979126 -140.60334 
L 303.299566 -137.663653 
L 293.025486 -134.723966 
L 280.474112 -131.784279 
L 268.624243 -128.844592 
L 259.335229 -125.904905 
L 252.151199 -122.965218 
L 245.420631 -120.025531 
L 238.19408 -117.085844 
L 231.037261 -114.146157 
L 225.198694 -111.20647 
L 221.277353 -108.266783 
L 218.800065 -105.327096 
L 216.851654 -102.387409 
L 214.885949 -99.447722 
L 212.969079 -96.508035 
L 211.436761 -93.568348 
L 210.471737 -90.62866 
z
" style="stroke: #373737; stroke-width: 1.5"/>
    </defs>
    <g clip-path="url(#pc6ec0325fa)">
     <use xlink:href="#mce200b9df2" x="0" y="504" style="fill: #2b8e70; stroke: #373737; stroke-width: 1.5"/>
    </g>
   </g>
   <g id="PolyCollection_2">
    <defs>
     <path id="m29902e699f" d="M 464.190633 -93.92185 
L 463.999367 -93.92185 
L 463.885014 -97.314018 
L 463.679557 -100.706185 
L 463.346919 -104.098352 
L 462.855072 -107.49052 
L 462.180268 -110.882687 
L 461.305588 -114.274854 
L 460.213688 -117.667021 
L 458.877693 -121.059189 
L 457.256586 -124.451356 
L 455.299342 -127.843523 
L 452.95531 -131.235691 
L 450.183103 -134.627858 
L 446.953496 -138.020025 
L 443.250459 -141.412192 
L 439.075781 -144.80436 
L 434.452066 -148.196527 
L 429.412771 -151.588694 
L 423.986162 -154.980862 
L 418.207667 -158.373029 
L 412.182275 -161.765196 
L 406.147649 -165.157363 
L 400.436623 -168.549531 
L 395.31088 -171.941698 
L 390.804146 -175.333865 
L 386.768504 -178.726033 
L 383.124153 -182.1182 
L 380.051876 -185.510367 
L 377.88473 -188.902534 
L 376.796037 -192.294702 
L 376.645542 -195.686869 
L 377.171083 -199.079036 
L 378.287007 -202.471204 
L 380.113708 -205.863371 
L 382.701103 -209.255538 
L 385.791634 -212.647706 
L 388.9112 -216.039873 
L 391.67414 -219.43204 
L 393.964567 -222.824207 
L 395.862216 -226.216375 
L 397.500191 -229.608542 
L 399.055438 -233.000709 
L 400.81096 -236.392877 
L 403.087588 -239.785044 
L 406.026711 -243.177211 
L 409.455091 -246.569378 
L 413.019014 -249.961546 
L 416.472047 -253.353713 
L 419.826075 -256.74588 
L 423.248758 -260.138048 
L 426.877268 -263.530215 
L 430.756558 -266.922382 
L 434.889306 -270.314549 
L 439.229215 -273.706717 
L 443.567809 -277.098884 
L 447.477001 -280.491051 
L 450.464812 -283.883219 
L 452.26267 -287.275386 
L 452.990319 -290.667553 
L 453.056106 -294.05972 
L 452.905243 -297.451888 
L 452.832757 -300.844055 
L 452.956211 -304.236222 
L 453.280793 -307.62839 
L 453.757674 -311.020557 
L 454.311779 -314.412724 
L 454.86974 -317.804891 
L 455.398657 -321.197059 
L 455.926275 -324.589226 
L 456.517204 -327.981393 
L 457.220592 -331.373561 
L 458.030337 -334.765728 
L 458.884773 -338.157895 
L 459.700022 -341.550063 
L 460.41016 -344.94223 
L 460.988298 -348.334397 
L 461.440271 -351.726564 
L 461.784219 -355.118732 
L 462.037863 -358.510899 
L 462.221914 -361.903066 
L 462.366806 -365.295234 
L 462.505963 -368.687401 
L 462.657757 -372.079568 
L 462.816102 -375.471735 
L 462.962518 -378.863903 
L 463.088246 -382.25607 
L 463.203633 -385.648237 
L 463.326646 -389.040405 
L 463.464283 -392.432572 
L 463.605314 -395.824739 
L 463.728947 -399.216906 
L 463.819661 -402.609074 
L 463.876214 -406.001241 
L 463.910076 -409.393408 
L 463.936577 -412.785576 
L 463.965842 -416.177743 
L 463.999205 -419.56991 
L 464.031928 -422.962077 
L 464.058571 -426.354245 
L 464.076645 -429.746412 
L 464.113355 -429.746412 
L 464.113355 -429.746412 
L 464.131429 -426.354245 
L 464.158072 -422.962077 
L 464.190795 -419.56991 
L 464.224158 -416.177743 
L 464.253423 -412.785576 
L 464.279924 -409.393408 
L 464.313786 -406.001241 
L 464.370339 -402.609074 
L 464.461053 -399.216906 
L 464.584686 -395.824739 
L 464.725717 -392.432572 
L 464.863354 -389.040405 
L 464.986367 -385.648237 
L 465.101754 -382.25607 
L 465.227482 -378.863903 
L 465.373898 -375.471735 
L 465.532243 -372.079568 
L 465.684037 -368.687401 
L 465.823194 -365.295234 
L 465.968086 -361.903066 
L 466.152137 -358.510899 
L 466.405781 -355.118732 
L 466.749729 -351.726564 
L 467.201702 -348.334397 
L 467.77984 -344.94223 
L 468.489978 -341.550063 
L 469.305227 -338.157895 
L 470.159663 -334.765728 
L 470.969408 -331.373561 
L 471.672796 -327.981393 
L 472.263725 -324.589226 
L 472.791343 -321.197059 
L 473.32026 -317.804891 
L 473.878221 -314.412724 
L 474.432326 -311.020557 
L 474.909207 -307.62839 
L 475.233789 -304.236222 
L 475.357243 -300.844055 
L 475.284757 -297.451888 
L 475.133894 -294.05972 
L 475.199681 -290.667553 
L 475.92733 -287.275386 
L 477.725188 -283.883219 
L 480.712999 -280.491051 
L 484.622191 -277.098884 
L 488.960785 -273.706717 
L 493.300694 -270.314549 
L 497.433442 -266.922382 
L 501.312732 -263.530215 
L 504.941242 -260.138048 
L 508.363925 -256.74588 
L 511.717953 -253.353713 
L 515.170986 -249.961546 
L 518.734909 -246.569378 
L 522.163289 -243.177211 
L 525.102412 -239.785044 
L 527.37904 -236.392877 
L 529.134562 -233.000709 
L 530.689809 -229.608542 
L 532.327784 -226.216375 
L 534.225433 -222.824207 
L 536.51586 -219.43204 
L 539.2788 -216.039873 
L 542.398366 -212.647706 
L 545.488897 -209.255538 
L 548.076292 -205.863371 
L 549.902993 -202.471204 
L 551.018917 -199.079036 
L 551.544458 -195.686869 
L 551.393963 -192.294702 
L 550.30527 -188.902534 
L 548.138124 -185.510367 
L 545.065847 -182.1182 
L 541.421496 -178.726033 
L 537.385854 -175.333865 
L 532.87912 -171.941698 
L 527.753377 -168.549531 
L 522.042351 -165.157363 
L 516.007725 -161.765196 
L 509.982333 -158.373029 
L 504.203838 -154.980862 
L 498.777229 -151.588694 
L 493.737934 -148.196527 
L 489.114219 -144.80436 
L 484.939541 -141.412192 
L 481.236504 -138.020025 
L 478.006897 -134.627858 
L 475.23469 -131.235691 
L 472.890658 -127.843523 
L 470.933414 -124.451356 
L 469.312307 -121.059189 
L 467.976312 -117.667021 
L 466.884412 -114.274854 
L 466.009732 -110.882687 
L 465.334928 -107.49052 
L 464.843081 -104.098352 
L 464.510443 -100.706185 
L 464.304986 -97.314018 
L 464.190633 -93.92185 
z
" style="stroke: #373737; stroke-width: 1.5"/>
    </defs>
    <g clip-path="url(#pc6ec0325fa)">
     <use xlink:href="#m29902e699f" x="0" y="504" style="fill: #7c78ab; stroke: #373737; stroke-width: 1.5"/>
    </g>
   </g>
   <g id="PolyCollection_3">
    <defs>
     <path id="m0fb99e8e38" d="M 718.47734 -83.514787 
L 718.439327 -83.514787 
L 718.420733 -86.944195 
L 718.390872 -90.373603 
L 718.347599 -93.803011 
L 718.290077 -97.232419 
L 718.218185 -100.661827 
L 718.130927 -104.091235 
L 718.024525 -107.520642 
L 717.890553 -110.95005 
L 717.713597 -114.379458 
L 717.467895 -117.808866 
L 717.114242 -121.238274 
L 716.600395 -124.667682 
L 715.867374 -128.09709 
L 714.860258 -131.526498 
L 713.539188 -134.955905 
L 711.887436 -138.385313 
L 709.916134 -141.814721 
L 707.664013 -145.244129 
L 705.186437 -148.673537 
L 702.530325 -152.102945 
L 699.70512 -155.532353 
L 696.672441 -158.961761 
L 693.368742 -162.391168 
L 689.747459 -165.820576 
L 685.809449 -169.249984 
L 681.607152 -172.679392 
L 677.239316 -176.1088 
L 672.853707 -179.538208 
L 668.639178 -182.967616 
L 664.771407 -186.397024 
L 661.324857 -189.826431 
L 658.231358 -193.255839 
L 655.351942 -196.685247 
L 652.615802 -200.114655 
L 650.091541 -203.544063 
L 647.915727 -206.973471 
L 646.161162 -210.402879 
L 644.793516 -213.832287 
L 643.751926 -217.261695 
L 643.037646 -220.691102 
L 642.699156 -224.12051 
L 642.751143 -227.549918 
L 643.153066 -230.979326 
L 643.879764 -234.408734 
L 644.973457 -237.838142 
L 646.478778 -241.26755 
L 648.324416 -244.696958 
L 650.310002 -248.126365 
L 652.249647 -251.555773 
L 654.143183 -254.985181 
L 656.214904 -258.414589 
L 658.802039 -261.843997 
L 662.20191 -265.273405 
L 666.558975 -268.702813 
L 671.776901 -272.132221 
L 677.441968 -275.561628 
L 682.839549 -278.991036 
L 687.163596 -282.420444 
L 689.869881 -285.849852 
L 690.950565 -289.27926 
L 690.922118 -292.708668 
L 690.532456 -296.138076 
L 690.398861 -299.567484 
L 690.801307 -302.996891 
L 691.702099 -306.426299 
L 692.905858 -309.855707 
L 694.226948 -313.285115 
L 695.580391 -316.714523 
L 696.983644 -320.143931 
L 698.501464 -323.573339 
L 700.178745 -327.002747 
L 701.997905 -330.432154 
L 703.876874 -333.861562 
L 705.69951 -337.29097 
L 707.355351 -340.720378 
L 708.768826 -344.149786 
L 709.912866 -347.579194 
L 710.811209 -351.008602 
L 711.53018 -354.43801 
L 712.155517 -357.867418 
L 712.756776 -361.296825 
L 713.35692 -364.726233 
L 713.928534 -368.155641 
L 714.421167 -371.585049 
L 714.800729 -375.014457 
L 715.074314 -378.443865 
L 715.28755 -381.873273 
L 715.501621 -385.302681 
L 715.766654 -388.732088 
L 716.104469 -392.161496 
L 716.504907 -395.590904 
L 716.933637 -399.020312 
L 717.346527 -402.44972 
L 717.704778 -405.879128 
L 717.985463 -409.308536 
L 718.184431 -412.737944 
L 718.312249 -416.167351 
L 718.386754 -419.596759 
L 718.426188 -423.026167 
L 718.490479 -423.026167 
L 718.490479 -423.026167 
L 718.529913 -419.596759 
L 718.604418 -416.167351 
L 718.732236 -412.737944 
L 718.931204 -409.308536 
L 719.211889 -405.879128 
L 719.570139 -402.44972 
L 719.983029 -399.020312 
L 720.41176 -395.590904 
L 720.812198 -392.161496 
L 721.150012 -388.732088 
L 721.415046 -385.302681 
L 721.629116 -381.873273 
L 721.842352 -378.443865 
L 722.115938 -375.014457 
L 722.4955 -371.585049 
L 722.988132 -368.155641 
L 723.559747 -364.726233 
L 724.15989 -361.296825 
L 724.76115 -357.867418 
L 725.386487 -354.43801 
L 726.105458 -351.008602 
L 727.0038 -347.579194 
L 728.147841 -344.149786 
L 729.561316 -340.720378 
L 731.217157 -337.29097 
L 733.039793 -333.861562 
L 734.918762 -330.432154 
L 736.737922 -327.002747 
L 738.415202 -323.573339 
L 739.933022 -320.143931 
L 741.336276 -316.714523 
L 742.689719 -313.285115 
L 744.010809 -309.855707 
L 745.214568 -306.426299 
L 746.115359 -302.996891 
L 746.517806 -299.567484 
L 746.384211 -296.138076 
L 745.994549 -292.708668 
L 745.966101 -289.27926 
L 747.046786 -285.849852 
L 749.75307 -282.420444 
L 754.077118 -278.991036 
L 759.474699 -275.561628 
L 765.139765 -272.132221 
L 770.357692 -268.702813 
L 774.714757 -265.273405 
L 778.114627 -261.843997 
L 780.701763 -258.414589 
L 782.773484 -254.985181 
L 784.667019 -251.555773 
L 786.606664 -248.126365 
L 788.59225 -244.696958 
L 790.437889 -241.26755 
L 791.94321 -237.838142 
L 793.036902 -234.408734 
L 793.763601 -230.979326 
L 794.165523 -227.549918 
L 794.217511 -224.12051 
L 793.879021 -220.691102 
L 793.164741 -217.261695 
L 792.123151 -213.832287 
L 790.755504 -210.402879 
L 789.000939 -206.973471 
L 786.825125 -203.544063 
L 784.300864 -200.114655 
L 781.564724 -196.685247 
L 778.685308 -193.255839 
L 775.591809 -189.826431 
L 772.145259 -186.397024 
L 768.277489 -182.967616 
L 764.06296 -179.538208 
L 759.67735 -176.1088 
L 755.309515 -172.679392 
L 751.107218 -169.249984 
L 747.169207 -165.820576 
L 743.547925 -162.391168 
L 740.244226 -158.961761 
L 737.211547 -155.532353 
L 734.386342 -152.102945 
L 731.73023 -148.673537 
L 729.252654 -145.244129 
L 727.000532 -141.814721 
L 725.02923 -138.385313 
L 723.377479 -134.955905 
L 722.056408 -131.526498 
L 721.049293 -128.09709 
L 720.316271 -124.667682 
L 719.802424 -121.238274 
L 719.448771 -117.808866 
L 719.20307 -114.379458 
L 719.026114 -110.95005 
L 718.892142 -107.520642 
L 718.78574 -104.091235 
L 718.698482 -100.661827 
L 718.62659 -97.232419 
L 718.569068 -93.803011 
L 718.525794 -90.373603 
L 718.495934 -86.944195 
L 718.47734 -83.514787 
z
" style="stroke: #373737; stroke-width: 1.5"/>
    </defs>
    <g clip-path="url(#pc6ec0325fa)">
     <use xlink:href="#m0fb99e8e38" x="0" y="504" style="fill: #ca9d1e; stroke: #373737; stroke-width: 1.5"/>
    </g>
   </g>
   <g id="matplotlib.axis_1">
    <g id="xtick_1">
     <g id="line2d_1">
      <defs>
       <path id="m127205e2cd" d="M 0 0 
L 0 3.5 
" style="stroke: #000000; stroke-width: 0.8"/>
      </defs>
      <g>
       <use xlink:href="#m127205e2cd" x="209.731667" y="400.593468" style="stroke: #000000; stroke-width: 0.8"/>
      </g>
     </g>
     <g id="text_1">
      <!-- dueling -->
      <g transform="translate(190.761318 461.302095) rotate(-45) scale(0.17 -0.17)">
       <defs>
        <path id="DejaVuSans-64" d="M 2906 2969 
L 2906 4863 
L 3481 4863 
L 3481 0 
L 2906 0 
L 2906 525 
Q 2725 213 2448 61 
Q 2172 -91 1784 -91 
Q 1150 -91 751 415 
Q 353 922 353 1747 
Q 353 2572 751 3078 
Q 1150 3584 1784 3584 
Q 2172 3584 2448 3432 
Q 2725 3281 2906 2969 
z
M 947 1747 
Q 947 1113 1208 752 
Q 1469 391 1925 391 
Q 2381 391 2643 752 
Q 2906 1113 2906 1747 
Q 2906 2381 2643 2742 
Q 2381 3103 1925 3103 
Q 1469 3103 1208 2742 
Q 947 2381 947 1747 
z
" transform="scale(0.015625)"/>
        <path id="DejaVuSans-75" d="M 544 1381 
L 544 3500 
L 1119 3500 
L 1119 1403 
Q 1119 906 1312 657 
Q 1506 409 1894 409 
Q 2359 409 2629 706 
Q 2900 1003 2900 1516 
L 2900 3500 
L 3475 3500 
L 3475 0 
L 2900 0 
L 2900 538 
Q 2691 219 2414 64 
Q 2138 -91 1772 -91 
Q 1169 -91 856 284 
Q 544 659 544 1381 
z
M 1991 3584 
L 1991 3584 
z
" transform="scale(0.015625)"/>
        <path id="DejaVuSans-65" d="M 3597 1894 
L 3597 1613 
L 953 1613 
Q 991 1019 1311 708 
Q 1631 397 2203 397 
Q 2534 397 2845 478 
Q 3156 559 3463 722 
L 3463 178 
Q 3153 47 2828 -22 
Q 2503 -91 2169 -91 
Q 1331 -91 842 396 
Q 353 884 353 1716 
Q 353 2575 817 3079 
Q 1281 3584 2069 3584 
Q 2775 3584 3186 3129 
Q 3597 2675 3597 1894 
z
M 3022 2063 
Q 3016 2534 2758 2815 
Q 2500 3097 2075 3097 
Q 1594 3097 1305 2825 
Q 1016 2553 972 2059 
L 3022 2063 
z
" transform="scale(0.015625)"/>
        <path id="DejaVuSans-6c" d="M 603 4863 
L 1178 4863 
L 1178 0 
L 603 0 
L 603 4863 
z
" transform="scale(0.015625)"/>
        <path id="DejaVuSans-69" d="M 603 3500 
L 1178 3500 
L 1178 0 
L 603 0 
L 603 3500 
z
M 603 4863 
L 1178 4863 
L 1178 4134 
L 603 4134 
L 603 4863 
z
" transform="scale(0.015625)"/>
        <path id="DejaVuSans-6e" d="M 3513 2113 
L 3513 0 
L 2938 0 
L 2938 2094 
Q 2938 2591 2744 2837 
Q 2550 3084 2163 3084 
Q 1697 3084 1428 2787 
Q 1159 2491 1159 1978 
L 1159 0 
L 581 0 
L 581 3500 
L 1159 3500 
L 1159 2956 
Q 1366 3272 1645 3428 
Q 1925 3584 2291 3584 
Q 2894 3584 3203 3211 
Q 3513 2838 3513 2113 
z
" transform="scale(0.015625)"/>
        <path id="DejaVuSans-67" d="M 2906 1791 
Q 2906 2416 2648 2759 
Q 2391 3103 1925 3103 
Q 1463 3103 1205 2759 
Q 947 2416 947 1791 
Q 947 1169 1205 825 
Q 1463 481 1925 481 
Q 2391 481 2648 825 
Q 2906 1169 2906 1791 
z
M 3481 434 
Q 3481 -459 3084 -895 
Q 2688 -1331 1869 -1331 
Q 1566 -1331 1297 -1286 
Q 1028 -1241 775 -1147 
L 775 -588 
Q 1028 -725 1275 -790 
Q 1522 -856 1778 -856 
Q 2344 -856 2625 -561 
Q 2906 -266 2906 331 
L 2906 616 
Q 2728 306 2450 153 
Q 2172 0 1784 0 
Q 1141 0 747 490 
Q 353 981 353 1791 
Q 353 2603 747 3093 
Q 1141 3584 1784 3584 
Q 2172 3584 2450 3431 
Q 2728 3278 2906 2969 
L 2906 3500 
L 3481 3500 
L 3481 434 
z
" transform="scale(0.015625)"/>
       </defs>
       <use xlink:href="#DejaVuSans-64"/>
       <use xlink:href="#DejaVuSans-75" x="63.476562"/>
       <use xlink:href="#DejaVuSans-65" x="126.855469"/>
       <use xlink:href="#DejaVuSans-6c" x="188.378906"/>
       <use xlink:href="#DejaVuSans-69" x="216.162109"/>
       <use xlink:href="#DejaVuSans-6e" x="243.945312"/>
       <use xlink:href="#DejaVuSans-67" x="307.324219"/>
      </g>
     </g>
    </g>
    <g id="xtick_2">
     <g id="line2d_2">
      <g>
       <use xlink:href="#m127205e2cd" x="464.095" y="400.593468" style="stroke: #000000; stroke-width: 0.8"/>
      </g>
     </g>
     <g id="text_2">
      <!-- vanilla -->
      <g transform="translate(447.669683 456.212031) rotate(-45) scale(0.17 -0.17)">
       <defs>
        <path id="DejaVuSans-76" d="M 191 3500 
L 800 3500 
L 1894 563 
L 2988 3500 
L 3597 3500 
L 2284 0 
L 1503 0 
L 191 3500 
z
" transform="scale(0.015625)"/>
        <path id="DejaVuSans-61" d="M 2194 1759 
Q 1497 1759 1228 1600 
Q 959 1441 959 1056 
Q 959 750 1161 570 
Q 1363 391 1709 391 
Q 2188 391 2477 730 
Q 2766 1069 2766 1631 
L 2766 1759 
L 2194 1759 
z
M 3341 1997 
L 3341 0 
L 2766 0 
L 2766 531 
Q 2569 213 2275 61 
Q 1981 -91 1556 -91 
Q 1019 -91 701 211 
Q 384 513 384 1019 
Q 384 1609 779 1909 
Q 1175 2209 1959 2209 
L 2766 2209 
L 2766 2266 
Q 2766 2663 2505 2880 
Q 2244 3097 1772 3097 
Q 1472 3097 1187 3025 
Q 903 2953 641 2809 
L 641 3341 
Q 956 3463 1253 3523 
Q 1550 3584 1831 3584 
Q 2591 3584 2966 3190 
Q 3341 2797 3341 1997 
z
" transform="scale(0.015625)"/>
       </defs>
       <use xlink:href="#DejaVuSans-76"/>
       <use xlink:href="#DejaVuSans-61" x="59.179688"/>
       <use xlink:href="#DejaVuSans-6e" x="120.458984"/>
       <use xlink:href="#DejaVuSans-69" x="183.837891"/>
       <use xlink:href="#DejaVuSans-6c" x="211.621094"/>
       <use xlink:href="#DejaVuSans-6c" x="239.404297"/>
       <use xlink:href="#DejaVuSans-61" x="267.1875"/>
      </g>
     </g>
    </g>
    <g id="xtick_3">
     <g id="line2d_3">
      <g>
       <use xlink:href="#m127205e2cd" x="718.458333" y="400.593468" style="stroke: #000000; stroke-width: 0.8"/>
      </g>
     </g>
     <g id="text_3">
      <!-- double -->
      <g transform="translate(701.289228 457.699607) rotate(-45) scale(0.17 -0.17)">
       <defs>
        <path id="DejaVuSans-6f" d="M 1959 3097 
Q 1497 3097 1228 2736 
Q 959 2375 959 1747 
Q 959 1119 1226 758 
Q 1494 397 1959 397 
Q 2419 397 2687 759 
Q 2956 1122 2956 1747 
Q 2956 2369 2687 2733 
Q 2419 3097 1959 3097 
z
M 1959 3584 
Q 2709 3584 3137 3096 
Q 3566 2609 3566 1747 
Q 3566 888 3137 398 
Q 2709 -91 1959 -91 
Q 1206 -91 779 398 
Q 353 888 353 1747 
Q 353 2609 779 3096 
Q 1206 3584 1959 3584 
z
" transform="scale(0.015625)"/>
        <path id="DejaVuSans-62" d="M 3116 1747 
Q 3116 2381 2855 2742 
Q 2594 3103 2138 3103 
Q 1681 3103 1420 2742 
Q 1159 2381 1159 1747 
Q 1159 1113 1420 752 
Q 1681 391 2138 391 
Q 2594 391 2855 752 
Q 3116 1113 3116 1747 
z
M 1159 2969 
Q 1341 3281 1617 3432 
Q 1894 3584 2278 3584 
Q 2916 3584 3314 3078 
Q 3713 2572 3713 1747 
Q 3713 922 3314 415 
Q 2916 -91 2278 -91 
Q 1894 -91 1617 61 
Q 1341 213 1159 525 
L 1159 0 
L 581 0 
L 581 4863 
L 1159 4863 
L 1159 2969 
z
" transform="scale(0.015625)"/>
       </defs>
       <use xlink:href="#DejaVuSans-64"/>
       <use xlink:href="#DejaVuSans-6f" x="63.476562"/>
       <use xlink:href="#DejaVuSans-75" x="124.658203"/>
       <use xlink:href="#DejaVuSans-62" x="188.037109"/>
       <use xlink:href="#DejaVuSans-6c" x="251.513672"/>
       <use xlink:href="#DejaVuSans-65" x="279.296875"/>
      </g>
     </g>
    </g>
    <g id="text_4">
     <!-- architecture -->
     <g transform="translate(405.225859 480.719392) scale(0.17 -0.17)">
      <defs>
       <path id="DejaVuSans-Bold-61" d="M 2106 1575 
Q 1756 1575 1579 1456 
Q 1403 1338 1403 1106 
Q 1403 894 1545 773 
Q 1688 653 1941 653 
Q 2256 653 2472 879 
Q 2688 1106 2688 1447 
L 2688 1575 
L 2106 1575 
z
M 3816 1997 
L 3816 0 
L 2688 0 
L 2688 519 
Q 2463 200 2181 54 
Q 1900 -91 1497 -91 
Q 953 -91 614 226 
Q 275 544 275 1050 
Q 275 1666 698 1953 
Q 1122 2241 2028 2241 
L 2688 2241 
L 2688 2328 
Q 2688 2594 2478 2717 
Q 2269 2841 1825 2841 
Q 1466 2841 1156 2769 
Q 847 2697 581 2553 
L 581 3406 
Q 941 3494 1303 3539 
Q 1666 3584 2028 3584 
Q 2975 3584 3395 3211 
Q 3816 2838 3816 1997 
z
" transform="scale(0.015625)"/>
       <path id="DejaVuSans-Bold-72" d="M 3138 2547 
Q 2991 2616 2845 2648 
Q 2700 2681 2553 2681 
Q 2122 2681 1889 2404 
Q 1656 2128 1656 1613 
L 1656 0 
L 538 0 
L 538 3500 
L 1656 3500 
L 1656 2925 
Q 1872 3269 2151 3426 
Q 2431 3584 2822 3584 
Q 2878 3584 2943 3579 
Q 3009 3575 3134 3559 
L 3138 2547 
z
" transform="scale(0.015625)"/>
       <path id="DejaVuSans-Bold-63" d="M 3366 3391 
L 3366 2478 
Q 3138 2634 2908 2709 
Q 2678 2784 2431 2784 
Q 1963 2784 1702 2511 
Q 1441 2238 1441 1747 
Q 1441 1256 1702 982 
Q 1963 709 2431 709 
Q 2694 709 2930 787 
Q 3166 866 3366 1019 
L 3366 103 
Q 3103 6 2833 -42 
Q 2563 -91 2291 -91 
Q 1344 -91 809 395 
Q 275 881 275 1747 
Q 275 2613 809 3098 
Q 1344 3584 2291 3584 
Q 2566 3584 2833 3536 
Q 3100 3488 3366 3391 
z
" transform="scale(0.015625)"/>
       <path id="DejaVuSans-Bold-68" d="M 4056 2131 
L 4056 0 
L 2931 0 
L 2931 347 
L 2931 1625 
Q 2931 2084 2911 2256 
Q 2891 2428 2841 2509 
Q 2775 2619 2662 2680 
Q 2550 2741 2406 2741 
Q 2056 2741 1856 2470 
Q 1656 2200 1656 1722 
L 1656 0 
L 538 0 
L 538 4863 
L 1656 4863 
L 1656 2988 
Q 1909 3294 2193 3439 
Q 2478 3584 2822 3584 
Q 3428 3584 3742 3212 
Q 4056 2841 4056 2131 
z
" transform="scale(0.015625)"/>
       <path id="DejaVuSans-Bold-69" d="M 538 3500 
L 1656 3500 
L 1656 0 
L 538 0 
L 538 3500 
z
M 538 4863 
L 1656 4863 
L 1656 3950 
L 538 3950 
L 538 4863 
z
" transform="scale(0.015625)"/>
       <path id="DejaVuSans-Bold-74" d="M 1759 4494 
L 1759 3500 
L 2913 3500 
L 2913 2700 
L 1759 2700 
L 1759 1216 
Q 1759 972 1856 886 
Q 1953 800 2241 800 
L 2816 800 
L 2816 0 
L 1856 0 
Q 1194 0 917 276 
Q 641 553 641 1216 
L 641 2700 
L 84 2700 
L 84 3500 
L 641 3500 
L 641 4494 
L 1759 4494 
z
" transform="scale(0.015625)"/>
       <path id="DejaVuSans-Bold-65" d="M 4031 1759 
L 4031 1441 
L 1416 1441 
Q 1456 1047 1700 850 
Q 1944 653 2381 653 
Q 2734 653 3104 758 
Q 3475 863 3866 1075 
L 3866 213 
Q 3469 63 3072 -14 
Q 2675 -91 2278 -91 
Q 1328 -91 801 392 
Q 275 875 275 1747 
Q 275 2603 792 3093 
Q 1309 3584 2216 3584 
Q 3041 3584 3536 3087 
Q 4031 2591 4031 1759 
z
M 2881 2131 
Q 2881 2450 2695 2645 
Q 2509 2841 2209 2841 
Q 1884 2841 1681 2658 
Q 1478 2475 1428 2131 
L 2881 2131 
z
" transform="scale(0.015625)"/>
       <path id="DejaVuSans-Bold-75" d="M 500 1363 
L 500 3500 
L 1625 3500 
L 1625 3150 
Q 1625 2866 1622 2436 
Q 1619 2006 1619 1863 
Q 1619 1441 1641 1255 
Q 1663 1069 1716 984 
Q 1784 875 1895 815 
Q 2006 756 2150 756 
Q 2500 756 2700 1025 
Q 2900 1294 2900 1772 
L 2900 3500 
L 4019 3500 
L 4019 0 
L 2900 0 
L 2900 506 
Q 2647 200 2364 54 
Q 2081 -91 1741 -91 
Q 1134 -91 817 281 
Q 500 653 500 1363 
z
" transform="scale(0.015625)"/>
      </defs>
      <use xlink:href="#DejaVuSans-Bold-61"/>
      <use xlink:href="#DejaVuSans-Bold-72" x="67.480469"/>
      <use xlink:href="#DejaVuSans-Bold-63" x="116.796875"/>
      <use xlink:href="#DejaVuSans-Bold-68" x="176.074219"/>
      <use xlink:href="#DejaVuSans-Bold-69" x="247.265625"/>
      <use xlink:href="#DejaVuSans-Bold-74" x="281.542969"/>
      <use xlink:href="#DejaVuSans-Bold-65" x="329.345703"/>
      <use xlink:href="#DejaVuSans-Bold-63" x="397.167969"/>
      <use xlink:href="#DejaVuSans-Bold-74" x="456.445312"/>
      <use xlink:href="#DejaVuSans-Bold-75" x="504.248047"/>
      <use xlink:href="#DejaVuSans-Bold-72" x="575.439453"/>
      <use xlink:href="#DejaVuSans-Bold-65" x="624.755859"/>
     </g>
    </g>
   </g>
   <g id="matplotlib.axis_2">
    <g id="ytick_1">
     <g id="line2d_4">
      <defs>
       <path id="m1740c83bc3" d="M 0 0 
L -3.5 0 
" style="stroke: #000000; stroke-width: 0.8"/>
      </defs>
      <g>
       <use xlink:href="#m1740c83bc3" x="82.55" y="392.029814" style="stroke: #000000; stroke-width: 0.8"/>
      </g>
     </g>
     <g id="text_5">
      <!-- −20 -->
      <g transform="translate(39.672031 398.488485) scale(0.17 -0.17)">
       <defs>
        <path id="DejaVuSans-2212" d="M 678 2272 
L 4684 2272 
L 4684 1741 
L 678 1741 
L 678 2272 
z
" transform="scale(0.015625)"/>
        <path id="DejaVuSans-32" d="M 1228 531 
L 3431 531 
L 3431 0 
L 469 0 
L 469 531 
Q 828 903 1448 1529 
Q 2069 2156 2228 2338 
Q 2531 2678 2651 2914 
Q 2772 3150 2772 3378 
Q 2772 3750 2511 3984 
Q 2250 4219 1831 4219 
Q 1534 4219 1204 4116 
Q 875 4013 500 3803 
L 500 4441 
Q 881 4594 1212 4672 
Q 1544 4750 1819 4750 
Q 2544 4750 2975 4387 
Q 3406 4025 3406 3419 
Q 3406 3131 3298 2873 
Q 3191 2616 2906 2266 
Q 2828 2175 2409 1742 
Q 1991 1309 1228 531 
z
" transform="scale(0.015625)"/>
        <path id="DejaVuSans-30" d="M 2034 4250 
Q 1547 4250 1301 3770 
Q 1056 3291 1056 2328 
Q 1056 1369 1301 889 
Q 1547 409 2034 409 
Q 2525 409 2770 889 
Q 3016 1369 3016 2328 
Q 3016 3291 2770 3770 
Q 2525 4250 2034 4250 
z
M 2034 4750 
Q 2819 4750 3233 4129 
Q 3647 3509 3647 2328 
Q 3647 1150 3233 529 
Q 2819 -91 2034 -91 
Q 1250 -91 836 529 
Q 422 1150 422 2328 
Q 422 3509 836 4129 
Q 1250 4750 2034 4750 
z
" transform="scale(0.015625)"/>
       </defs>
       <use xlink:href="#DejaVuSans-2212"/>
       <use xlink:href="#DejaVuSans-32" x="83.789062"/>
       <use xlink:href="#DejaVuSans-30" x="147.412109"/>
      </g>
     </g>
    </g>
    <g id="ytick_2">
     <g id="line2d_5">
      <g>
       <use xlink:href="#m1740c83bc3" x="82.55" y="349.211544" style="stroke: #000000; stroke-width: 0.8"/>
      </g>
     </g>
     <g id="text_6">
      <!-- −15 -->
      <g transform="translate(39.672031 355.670216) scale(0.17 -0.17)">
       <defs>
        <path id="DejaVuSans-31" d="M 794 531 
L 1825 531 
L 1825 4091 
L 703 3866 
L 703 4441 
L 1819 4666 
L 2450 4666 
L 2450 531 
L 3481 531 
L 3481 0 
L 794 0 
L 794 531 
z
" transform="scale(0.015625)"/>
        <path id="DejaVuSans-35" d="M 691 4666 
L 3169 4666 
L 3169 4134 
L 1269 4134 
L 1269 2991 
Q 1406 3038 1543 3061 
Q 1681 3084 1819 3084 
Q 2600 3084 3056 2656 
Q 3513 2228 3513 1497 
Q 3513 744 3044 326 
Q 2575 -91 1722 -91 
Q 1428 -91 1123 -41 
Q 819 9 494 109 
L 494 744 
Q 775 591 1075 516 
Q 1375 441 1709 441 
Q 2250 441 2565 725 
Q 2881 1009 2881 1497 
Q 2881 1984 2565 2268 
Q 2250 2553 1709 2553 
Q 1456 2553 1204 2497 
Q 953 2441 691 2322 
L 691 4666 
z
" transform="scale(0.015625)"/>
       </defs>
       <use xlink:href="#DejaVuSans-2212"/>
       <use xlink:href="#DejaVuSans-31" x="83.789062"/>
       <use xlink:href="#DejaVuSans-35" x="147.412109"/>
      </g>
     </g>
    </g>
    <g id="ytick_3">
     <g id="line2d_6">
      <g>
       <use xlink:href="#m1740c83bc3" x="82.55" y="306.393274" style="stroke: #000000; stroke-width: 0.8"/>
      </g>
     </g>
     <g id="text_7">
      <!-- −10 -->
      <g transform="translate(39.672031 312.851946) scale(0.17 -0.17)">
       <use xlink:href="#DejaVuSans-2212"/>
       <use xlink:href="#DejaVuSans-31" x="83.789062"/>
       <use xlink:href="#DejaVuSans-30" x="147.412109"/>
      </g>
     </g>
    </g>
    <g id="ytick_4">
     <g id="line2d_7">
      <g>
       <use xlink:href="#m1740c83bc3" x="82.55" y="263.575004" style="stroke: #000000; stroke-width: 0.8"/>
      </g>
     </g>
     <g id="text_8">
      <!-- −5 -->
      <g transform="translate(50.488281 270.033676) scale(0.17 -0.17)">
       <use xlink:href="#DejaVuSans-2212"/>
       <use xlink:href="#DejaVuSans-35" x="83.789062"/>
      </g>
     </g>
    </g>
    <g id="ytick_5">
     <g id="line2d_8">
      <g>
       <use xlink:href="#m1740c83bc3" x="82.55" y="220.756734" style="stroke: #000000; stroke-width: 0.8"/>
      </g>
     </g>
     <g id="text_9">
      <!-- 0 -->
      <g transform="translate(64.73375 227.215406) scale(0.17 -0.17)">
       <use xlink:href="#DejaVuSans-30"/>
      </g>
     </g>
    </g>
    <g id="ytick_6">
     <g id="line2d_9">
      <g>
       <use xlink:href="#m1740c83bc3" x="82.55" y="177.938464" style="stroke: #000000; stroke-width: 0.8"/>
      </g>
     </g>
     <g id="text_10">
      <!-- 5 -->
      <g transform="translate(64.73375 184.397136) scale(0.17 -0.17)">
       <use xlink:href="#DejaVuSans-35"/>
      </g>
     </g>
    </g>
    <g id="ytick_7">
     <g id="line2d_10">
      <g>
       <use xlink:href="#m1740c83bc3" x="82.55" y="135.120194" style="stroke: #000000; stroke-width: 0.8"/>
      </g>
     </g>
     <g id="text_11">
      <!-- 10 -->
      <g transform="translate(53.9175 141.578866) scale(0.17 -0.17)">
       <use xlink:href="#DejaVuSans-31"/>
       <use xlink:href="#DejaVuSans-30" x="63.623047"/>
      </g>
     </g>
    </g>
    <g id="ytick_8">
     <g id="line2d_11">
      <g>
       <use xlink:href="#m1740c83bc3" x="82.55" y="92.301924" style="stroke: #000000; stroke-width: 0.8"/>
      </g>
     </g>
     <g id="text_12">
      <!-- 15 -->
      <g transform="translate(53.9175 98.760596) scale(0.17 -0.17)">
       <use xlink:href="#DejaVuSans-31"/>
       <use xlink:href="#DejaVuSans-35" x="63.623047"/>
      </g>
     </g>
    </g>
    <g id="ytick_9">
     <g id="line2d_12">
      <g>
       <use xlink:href="#m1740c83bc3" x="82.55" y="49.483654" style="stroke: #000000; stroke-width: 0.8"/>
      </g>
     </g>
     <g id="text_13">
      <!-- 20 -->
      <g transform="translate(53.9175 55.942326) scale(0.17 -0.17)">
       <use xlink:href="#DejaVuSans-32"/>
       <use xlink:href="#DejaVuSans-30" x="63.623047"/>
      </g>
     </g>
    </g>
    <g id="text_14">
     <!-- reward -->
     <g transform="translate(32.136562 254.578765) rotate(-90) scale(0.17 -0.17)">
      <defs>
       <path id="DejaVuSans-Bold-77" d="M 225 3500 
L 1313 3500 
L 1900 1088 
L 2491 3500 
L 3425 3500 
L 4013 1113 
L 4603 3500 
L 5691 3500 
L 4769 0 
L 3547 0 
L 2956 2406 
L 2369 0 
L 1147 0 
L 225 3500 
z
" transform="scale(0.015625)"/>
       <path id="DejaVuSans-Bold-64" d="M 2919 2988 
L 2919 4863 
L 4044 4863 
L 4044 0 
L 2919 0 
L 2919 506 
Q 2688 197 2409 53 
Q 2131 -91 1766 -91 
Q 1119 -91 703 423 
Q 288 938 288 1747 
Q 288 2556 703 3070 
Q 1119 3584 1766 3584 
Q 2128 3584 2408 3439 
Q 2688 3294 2919 2988 
z
M 2181 722 
Q 2541 722 2730 984 
Q 2919 1247 2919 1747 
Q 2919 2247 2730 2509 
Q 2541 2772 2181 2772 
Q 1825 2772 1636 2509 
Q 1447 2247 1447 1747 
Q 1447 1247 1636 984 
Q 1825 722 2181 722 
z
" transform="scale(0.015625)"/>
      </defs>
      <use xlink:href="#DejaVuSans-Bold-72"/>
      <use xlink:href="#DejaVuSans-Bold-65" x="49.316406"/>
      <use xlink:href="#DejaVuSans-Bold-77" x="117.138672"/>
      <use xlink:href="#DejaVuSans-Bold-61" x="209.521484"/>
      <use xlink:href="#DejaVuSans-Bold-72" x="277.001953"/>
      <use xlink:href="#DejaVuSans-Bold-64" x="326.318359"/>
     </g>
    </g>
   </g>
   <g id="line2d_13">
    <path d="M 100.044079 357.775198 
L 319.419255 357.775198 
" clip-path="url(#pc6ec0325fa)" style="fill: none; stroke-dasharray: 3.375,3.375; stroke-dashoffset: 0; stroke: #373737; stroke-width: 1.5"/>
   </g>
   <g id="line2d_14">
    <path d="M 97.307713 340.64789 
L 322.15562 340.64789 
" clip-path="url(#pc6ec0325fa)" style="fill: none; stroke-dasharray: 6.75,6.75; stroke-dashoffset: 0; stroke: #373737; stroke-width: 1.5"/>
   </g>
   <g id="line2d_15">
    <path d="M 122.135864 314.956928 
L 297.32747 314.956928 
" clip-path="url(#pc6ec0325fa)" style="fill: none; stroke-dasharray: 3.375,3.375; stroke-dashoffset: 0; stroke: #373737; stroke-width: 1.5"/>
   </g>
   <g id="line2d_16">
    <path d="M 383.933861 323.520582 
L 544.256139 323.520582 
" clip-path="url(#pc6ec0325fa)" style="fill: none; stroke-dasharray: 3.375,3.375; stroke-dashoffset: 0; stroke: #373737; stroke-width: 1.5"/>
   </g>
   <g id="line2d_17">
    <path d="M 380.953521 297.82962 
L 547.236479 297.82962 
" clip-path="url(#pc6ec0325fa)" style="fill: none; stroke-dasharray: 6.75,6.75; stroke-dashoffset: 0; stroke: #373737; stroke-width: 1.5"/>
   </g>
   <g id="line2d_18">
    <path d="M 403.697662 263.575004 
L 524.492338 263.575004 
" clip-path="url(#pc6ec0325fa)" style="fill: none; stroke-dasharray: 3.375,3.375; stroke-dashoffset: 0; stroke: #373737; stroke-width: 1.5"/>
   </g>
   <g id="line2d_19">
    <path d="M 648.621153 297.82962 
L 788.295513 297.82962 
" clip-path="url(#pc6ec0325fa)" style="fill: none; stroke-dasharray: 3.375,3.375; stroke-dashoffset: 0; stroke: #373737; stroke-width: 1.5"/>
   </g>
   <g id="line2d_20">
    <path d="M 643.906118 272.138658 
L 793.010548 272.138658 
" clip-path="url(#pc6ec0325fa)" style="fill: none; stroke-dasharray: 6.75,6.75; stroke-dashoffset: 0; stroke: #373737; stroke-width: 1.5"/>
   </g>
   <g id="line2d_21">
    <path d="M 662.764474 237.884042 
L 774.152193 237.884042 
" clip-path="url(#pc6ec0325fa)" style="fill: none; stroke-dasharray: 3.375,3.375; stroke-dashoffset: 0; stroke: #373737; stroke-width: 1.5"/>
   </g>
   <g id="line2d_22">
    <path d="M 82.55 220.756734 
L 845.64 220.756734 
" clip-path="url(#pc6ec0325fa)" style="fill: none; stroke-dasharray: 1.85,0.8; stroke-dashoffset: 0; stroke: #808080; stroke-width: 0.5"/>
   </g>
   <g id="patch_3">
    <path d="M 82.55 400.593468 
L 82.55 40.92 
" style="fill: none; stroke: #000000; stroke-width: 0.8; stroke-linejoin: miter; stroke-linecap: square"/>
   </g>
   <g id="patch_4">
    <path d="M 845.64 400.593468 
L 845.64 40.92 
" style="fill: none; stroke: #000000; stroke-width: 0.8; stroke-linejoin: miter; stroke-linecap: square"/>
   </g>
   <g id="patch_5">
    <path d="M 82.55 400.593468 
L 845.64 400.593468 
" style="fill: none; stroke: #000000; stroke-width: 0.8; stroke-linejoin: miter; stroke-linecap: square"/>
   </g>
   <g id="patch_6">
    <path d="M 82.55 40.92 
L 845.64 40.92 
" style="fill: none; stroke: #000000; stroke-width: 0.8; stroke-linejoin: miter; stroke-linecap: square"/>
   </g>
   <g id="text_15">
    <!-- Reward Distribution of DQN Architectures -->
    <g transform="translate(235.951563 34.92) scale(0.22 -0.22)">
     <defs>
      <path id="DejaVuSans-52" d="M 2841 2188 
Q 3044 2119 3236 1894 
Q 3428 1669 3622 1275 
L 4263 0 
L 3584 0 
L 2988 1197 
Q 2756 1666 2539 1819 
Q 2322 1972 1947 1972 
L 1259 1972 
L 1259 0 
L 628 0 
L 628 4666 
L 2053 4666 
Q 2853 4666 3247 4331 
Q 3641 3997 3641 3322 
Q 3641 2881 3436 2590 
Q 3231 2300 2841 2188 
z
M 1259 4147 
L 1259 2491 
L 2053 2491 
Q 2509 2491 2742 2702 
Q 2975 2913 2975 3322 
Q 2975 3731 2742 3939 
Q 2509 4147 2053 4147 
L 1259 4147 
z
" transform="scale(0.015625)"/>
      <path id="DejaVuSans-77" d="M 269 3500 
L 844 3500 
L 1563 769 
L 2278 3500 
L 2956 3500 
L 3675 769 
L 4391 3500 
L 4966 3500 
L 4050 0 
L 3372 0 
L 2619 2869 
L 1863 0 
L 1184 0 
L 269 3500 
z
" transform="scale(0.015625)"/>
      <path id="DejaVuSans-72" d="M 2631 2963 
Q 2534 3019 2420 3045 
Q 2306 3072 2169 3072 
Q 1681 3072 1420 2755 
Q 1159 2438 1159 1844 
L 1159 0 
L 581 0 
L 581 3500 
L 1159 3500 
L 1159 2956 
Q 1341 3275 1631 3429 
Q 1922 3584 2338 3584 
Q 2397 3584 2469 3576 
Q 2541 3569 2628 3553 
L 2631 2963 
z
" transform="scale(0.015625)"/>
      <path id="DejaVuSans-20" transform="scale(0.015625)"/>
      <path id="DejaVuSans-44" d="M 1259 4147 
L 1259 519 
L 2022 519 
Q 2988 519 3436 956 
Q 3884 1394 3884 2338 
Q 3884 3275 3436 3711 
Q 2988 4147 2022 4147 
L 1259 4147 
z
M 628 4666 
L 1925 4666 
Q 3281 4666 3915 4102 
Q 4550 3538 4550 2338 
Q 4550 1131 3912 565 
Q 3275 0 1925 0 
L 628 0 
L 628 4666 
z
" transform="scale(0.015625)"/>
      <path id="DejaVuSans-73" d="M 2834 3397 
L 2834 2853 
Q 2591 2978 2328 3040 
Q 2066 3103 1784 3103 
Q 1356 3103 1142 2972 
Q 928 2841 928 2578 
Q 928 2378 1081 2264 
Q 1234 2150 1697 2047 
L 1894 2003 
Q 2506 1872 2764 1633 
Q 3022 1394 3022 966 
Q 3022 478 2636 193 
Q 2250 -91 1575 -91 
Q 1294 -91 989 -36 
Q 684 19 347 128 
L 347 722 
Q 666 556 975 473 
Q 1284 391 1588 391 
Q 1994 391 2212 530 
Q 2431 669 2431 922 
Q 2431 1156 2273 1281 
Q 2116 1406 1581 1522 
L 1381 1569 
Q 847 1681 609 1914 
Q 372 2147 372 2553 
Q 372 3047 722 3315 
Q 1072 3584 1716 3584 
Q 2034 3584 2315 3537 
Q 2597 3491 2834 3397 
z
" transform="scale(0.015625)"/>
      <path id="DejaVuSans-74" d="M 1172 4494 
L 1172 3500 
L 2356 3500 
L 2356 3053 
L 1172 3053 
L 1172 1153 
Q 1172 725 1289 603 
Q 1406 481 1766 481 
L 2356 481 
L 2356 0 
L 1766 0 
Q 1100 0 847 248 
Q 594 497 594 1153 
L 594 3053 
L 172 3053 
L 172 3500 
L 594 3500 
L 594 4494 
L 1172 4494 
z
" transform="scale(0.015625)"/>
      <path id="DejaVuSans-66" d="M 2375 4863 
L 2375 4384 
L 1825 4384 
Q 1516 4384 1395 4259 
Q 1275 4134 1275 3809 
L 1275 3500 
L 2222 3500 
L 2222 3053 
L 1275 3053 
L 1275 0 
L 697 0 
L 697 3053 
L 147 3053 
L 147 3500 
L 697 3500 
L 697 3744 
Q 697 4328 969 4595 
Q 1241 4863 1831 4863 
L 2375 4863 
z
" transform="scale(0.015625)"/>
      <path id="DejaVuSans-51" d="M 2522 4238 
Q 1834 4238 1429 3725 
Q 1025 3213 1025 2328 
Q 1025 1447 1429 934 
Q 1834 422 2522 422 
Q 3209 422 3611 934 
Q 4013 1447 4013 2328 
Q 4013 3213 3611 3725 
Q 3209 4238 2522 4238 
z
M 3406 84 
L 4238 -825 
L 3475 -825 
L 2784 -78 
Q 2681 -84 2626 -87 
Q 2572 -91 2522 -91 
Q 1538 -91 948 567 
Q 359 1225 359 2328 
Q 359 3434 948 4092 
Q 1538 4750 2522 4750 
Q 3503 4750 4090 4092 
Q 4678 3434 4678 2328 
Q 4678 1516 4351 937 
Q 4025 359 3406 84 
z
" transform="scale(0.015625)"/>
      <path id="DejaVuSans-4e" d="M 628 4666 
L 1478 4666 
L 3547 763 
L 3547 4666 
L 4159 4666 
L 4159 0 
L 3309 0 
L 1241 3903 
L 1241 0 
L 628 0 
L 628 4666 
z
" transform="scale(0.015625)"/>
      <path id="DejaVuSans-41" d="M 2188 4044 
L 1331 1722 
L 3047 1722 
L 2188 4044 
z
M 1831 4666 
L 2547 4666 
L 4325 0 
L 3669 0 
L 3244 1197 
L 1141 1197 
L 716 0 
L 50 0 
L 1831 4666 
z
" transform="scale(0.015625)"/>
      <path id="DejaVuSans-63" d="M 3122 3366 
L 3122 2828 
Q 2878 2963 2633 3030 
Q 2388 3097 2138 3097 
Q 1578 3097 1268 2742 
Q 959 2388 959 1747 
Q 959 1106 1268 751 
Q 1578 397 2138 397 
Q 2388 397 2633 464 
Q 2878 531 3122 666 
L 3122 134 
Q 2881 22 2623 -34 
Q 2366 -91 2075 -91 
Q 1284 -91 818 406 
Q 353 903 353 1747 
Q 353 2603 823 3093 
Q 1294 3584 2113 3584 
Q 2378 3584 2631 3529 
Q 2884 3475 3122 3366 
z
" transform="scale(0.015625)"/>
      <path id="DejaVuSans-68" d="M 3513 2113 
L 3513 0 
L 2938 0 
L 2938 2094 
Q 2938 2591 2744 2837 
Q 2550 3084 2163 3084 
Q 1697 3084 1428 2787 
Q 1159 2491 1159 1978 
L 1159 0 
L 581 0 
L 581 4863 
L 1159 4863 
L 1159 2956 
Q 1366 3272 1645 3428 
Q 1925 3584 2291 3584 
Q 2894 3584 3203 3211 
Q 3513 2838 3513 2113 
z
" transform="scale(0.015625)"/>
     </defs>
     <use xlink:href="#DejaVuSans-52"/>
     <use xlink:href="#DejaVuSans-65" x="64.982422"/>
     <use xlink:href="#DejaVuSans-77" x="126.505859"/>
     <use xlink:href="#DejaVuSans-61" x="208.292969"/>
     <use xlink:href="#DejaVuSans-72" x="269.572266"/>
     <use xlink:href="#DejaVuSans-64" x="308.935547"/>
     <use xlink:href="#DejaVuSans-20" x="372.412109"/>
     <use xlink:href="#DejaVuSans-44" x="404.199219"/>
     <use xlink:href="#DejaVuSans-69" x="481.201172"/>
     <use xlink:href="#DejaVuSans-73" x="508.984375"/>
     <use xlink:href="#DejaVuSans-74" x="561.083984"/>
     <use xlink:href="#DejaVuSans-72" x="600.292969"/>
     <use xlink:href="#DejaVuSans-69" x="641.40625"/>
     <use xlink:href="#DejaVuSans-62" x="669.189453"/>
     <use xlink:href="#DejaVuSans-75" x="732.666016"/>
     <use xlink:href="#DejaVuSans-74" x="796.044922"/>
     <use xlink:href="#DejaVuSans-69" x="835.253906"/>
     <use xlink:href="#DejaVuSans-6f" x="863.037109"/>
     <use xlink:href="#DejaVuSans-6e" x="924.21875"/>
     <use xlink:href="#DejaVuSans-20" x="987.597656"/>
     <use xlink:href="#DejaVuSans-6f" x="1019.384766"/>
     <use xlink:href="#DejaVuSans-66" x="1080.566406"/>
     <use xlink:href="#DejaVuSans-20" x="1115.771484"/>
     <use xlink:href="#DejaVuSans-44" x="1147.558594"/>
     <use xlink:href="#DejaVuSans-51" x="1224.560547"/>
     <use xlink:href="#DejaVuSans-4e" x="1303.271484"/>
     <use xlink:href="#DejaVuSans-20" x="1378.076172"/>
     <use xlink:href="#DejaVuSans-41" x="1409.863281"/>
     <use xlink:href="#DejaVuSans-72" x="1478.271484"/>
     <use xlink:href="#DejaVuSans-63" x="1517.134766"/>
     <use xlink:href="#DejaVuSans-68" x="1572.115234"/>
     <use xlink:href="#DejaVuSans-69" x="1635.494141"/>
     <use xlink:href="#DejaVuSans-74" x="1663.277344"/>
     <use xlink:href="#DejaVuSans-65" x="1702.486328"/>
     <use xlink:href="#DejaVuSans-63" x="1764.009766"/>
     <use xlink:href="#DejaVuSans-74" x="1818.990234"/>
     <use xlink:href="#DejaVuSans-75" x="1858.199219"/>
     <use xlink:href="#DejaVuSans-72" x="1921.578125"/>
     <use xlink:href="#DejaVuSans-65" x="1960.441406"/>
     <use xlink:href="#DejaVuSans-73" x="2021.964844"/>
    </g>
   </g>
  </g>
 </g>
 <defs>
  <clipPath id="pc6ec0325fa">
   <rect x="82.55" y="40.92" width="763.09" height="359.673468"/>
  </clipPath>
 </defs>
</svg>
