<?xml version="1.0" encoding="UTF-8" standalone="no"?>
<!-- Created with Inkscape (http://www.inkscape.org/) -->

<svg
   width="100.35948mm"
   height="55.74585mm"
   viewBox="0 0 100.35948 55.74585"
   version="1.1"
   id="svg1"
   inkscape:version="1.3 (0e150ed6c4, 2023-07-21)"
   sodipodi:docname="logo.svg"
   xmlns:inkscape="http://www.inkscape.org/namespaces/inkscape"
   xmlns:sodipodi="http://sodipodi.sourceforge.net/DTD/sodipodi-0.dtd"
   xmlns="http://www.w3.org/2000/svg"
   xmlns:svg="http://www.w3.org/2000/svg">
  <sodipodi:namedview
     id="namedview1"
     pagecolor="#ffffff"
     bordercolor="#000000"
     borderopacity="0.25"
     inkscape:showpageshadow="2"
     inkscape:pageopacity="0.0"
     inkscape:pagecheckerboard="0"
     inkscape:deskcolor="#d1d1d1"
     inkscape:document-units="mm"
     inkscape:zoom="0.78807166"
     inkscape:cx="367.35238"
     inkscape:cy="110.39605"
     inkscape:window-width="1502"
     inkscape:window-height="737"
     inkscape:window-x="1125"
     inkscape:window-y="362"
     inkscape:window-maximized="0"
     inkscape:current-layer="layer1" />
  <defs
     id="defs1">
    <clipPath
       clipPathUnits="userSpaceOnUse"
       id="clipPath89">
      <path
         d="M 0,1000 H 1000 V 0 H 0 Z"
         transform="translate(-525.50594,-502.84131)"
         id="path89" />
    </clipPath>
    <clipPath
       clipPathUnits="userSpaceOnUse"
       id="clipPath91">
      <path
         d="M 0,1000 H 1000 V 0 H 0 Z"
         transform="translate(-606.59774,-502.84131)"
         id="path91" />
    </clipPath>
    <clipPath
       clipPathUnits="userSpaceOnUse"
       id="clipPath93">
      <path
         d="M 0,1000 H 1000 V 0 H 0 Z"
         transform="translate(-650.41604,-549.81351)"
         id="path93" />
    </clipPath>
    <clipPath
       clipPathUnits="userSpaceOnUse"
       id="clipPath95">
      <path
         d="M 0,1000 H 1000 V 0 H 0 Z"
         transform="translate(-762.11039,-502.84131)"
         id="path95" />
    </clipPath>
    <clipPath
       clipPathUnits="userSpaceOnUse"
       id="clipPath97">
      <path
         d="M 0,1000 H 1000 V 0 H 0 Z"
         transform="translate(2.5000001e-5,-2.5000001e-5)"
         id="path97" />
    </clipPath>
    <clipPath
       clipPathUnits="userSpaceOnUse"
       id="clipPath99">
      <path
         d="M 0,1000 H 1000 V 0 H 0 Z"
         transform="translate(-867.12892,-540.49461)"
         id="path99" />
    </clipPath>
    <linearGradient
       x1="0"
       y1="0"
       x2="1"
       y2="0"
       gradientUnits="userSpaceOnUse"
       gradientTransform="matrix(4.0338714,-5.6138039,5.6138039,4.0338714,33.086463,125.93218)"
       spreadMethod="pad"
       id="linearGradient101">
      <stop
         style="stop-opacity:1;stop-color:#00e3ee icc-color(sRGB-IEC61966-2.1, 0, 0.8901825, 0.93331909);"
         offset="0"
         id="stop99" />
      <stop
         style="stop-opacity:1;stop-color:#e24cf7 icc-color(sRGB-IEC61966-2.1, 0.88626099, 0.29803467, 0.96861267);"
         offset="0.530516"
         id="stop100" />
      <stop
         style="stop-opacity:1;stop-color:#652d90 icc-color(sRGB-IEC61966-2.1, 0.39607239, 0.1764679, 0.56469727);"
         offset="1"
         id="stop101" />
    </linearGradient>
    <linearGradient
       x1="0"
       y1="0"
       x2="1"
       y2="0"
       gradientUnits="userSpaceOnUse"
       gradientTransform="matrix(1.9383929,-2.6975966,2.6975966,1.9383929,29.827544,120.16723)"
       spreadMethod="pad"
       id="linearGradient104">
      <stop
         style="stop-opacity:1;stop-color:#00e3ee icc-color(sRGB-IEC61966-2.1, 0, 0.8901825, 0.93331909);"
         offset="0"
         id="stop102" />
      <stop
         style="stop-opacity:1;stop-color:#e24cf7 icc-color(sRGB-IEC61966-2.1, 0.88626099, 0.29803467, 0.96861267);"
         offset="0.530516"
         id="stop103" />
      <stop
         style="stop-opacity:1;stop-color:#652d90 icc-color(sRGB-IEC61966-2.1, 0.39607239, 0.1764679, 0.56469727);"
         offset="1"
         id="stop104" />
    </linearGradient>
    <linearGradient
       x1="0"
       y1="0"
       x2="1"
       y2="0"
       gradientUnits="userSpaceOnUse"
       gradientTransform="matrix(1.3717977,-1.9090851,1.9090851,1.3717977,33.628599,116.45416)"
       spreadMethod="pad"
       id="linearGradient107">
      <stop
         style="stop-opacity:1;stop-color:#00e3ee icc-color(sRGB-IEC61966-2.1, 0, 0.8901825, 0.93331909);"
         offset="0"
         id="stop105" />
      <stop
         style="stop-opacity:1;stop-color:#e24cf7 icc-color(sRGB-IEC61966-2.1, 0.88626099, 0.29803467, 0.96861267);"
         offset="0.530516"
         id="stop106" />
      <stop
         style="stop-opacity:1;stop-color:#652d90 icc-color(sRGB-IEC61966-2.1, 0.39607239, 0.1764679, 0.56469727);"
         offset="1"
         id="stop107" />
    </linearGradient>
    <linearGradient
       x1="0"
       y1="0"
       x2="1"
       y2="0"
       gradientUnits="userSpaceOnUse"
       gradientTransform="matrix(2.5899851,-3.6043959,3.6043959,2.5899851,39.884048,144.04325)"
       spreadMethod="pad"
       id="linearGradient110">
      <stop
         style="stop-opacity:1;stop-color:#00e3ee icc-color(sRGB-IEC61966-2.1, 0, 0.8901825, 0.93331909);"
         offset="0"
         id="stop108" />
      <stop
         style="stop-opacity:1;stop-color:#e24cf7 icc-color(sRGB-IEC61966-2.1, 0.88626099, 0.29803467, 0.96861267);"
         offset="0.530516"
         id="stop109" />
      <stop
         style="stop-opacity:1;stop-color:#652d90 icc-color(sRGB-IEC61966-2.1, 0.39607239, 0.1764679, 0.56469727);"
         offset="1"
         id="stop110" />
    </linearGradient>
    <linearGradient
       x1="0"
       y1="0"
       x2="1"
       y2="0"
       gradientUnits="userSpaceOnUse"
       gradientTransform="matrix(8.1565421,-11.351187,11.351187,8.1565421,41.139722,153.65653)"
       spreadMethod="pad"
       id="linearGradient113">
      <stop
         style="stop-opacity:1;stop-color:#00e3ee icc-color(sRGB-IEC61966-2.1, 0, 0.8901825, 0.93331909);"
         offset="0"
         id="stop111" />
      <stop
         style="stop-opacity:1;stop-color:#e24cf7 icc-color(sRGB-IEC61966-2.1, 0.88626099, 0.29803467, 0.96861267);"
         offset="0.530516"
         id="stop112" />
      <stop
         style="stop-opacity:1;stop-color:#652d90 icc-color(sRGB-IEC61966-2.1, 0.39607239, 0.1764679, 0.56469727);"
         offset="1"
         id="stop113" />
    </linearGradient>
    <linearGradient
       x1="0"
       y1="0"
       x2="1"
       y2="0"
       gradientUnits="userSpaceOnUse"
       gradientTransform="matrix(5.8839154,-8.1884486,8.1884486,5.8839154,33.387323,149.22148)"
       spreadMethod="pad"
       id="linearGradient116">
      <stop
         style="stop-opacity:1;stop-color:#00e3ee icc-color(sRGB-IEC61966-2.1, 0, 0.8901825, 0.93331909);"
         offset="0"
         id="stop114" />
      <stop
         style="stop-opacity:1;stop-color:#e24cf7 icc-color(sRGB-IEC61966-2.1, 0.88626099, 0.29803467, 0.96861267);"
         offset="0.530516"
         id="stop115" />
      <stop
         style="stop-opacity:1;stop-color:#652d90 icc-color(sRGB-IEC61966-2.1, 0.39607239, 0.1764679, 0.56469727);"
         offset="1"
         id="stop116" />
    </linearGradient>
    <linearGradient
       x1="0"
       y1="0"
       x2="1"
       y2="0"
       gradientUnits="userSpaceOnUse"
       gradientTransform="matrix(11.535825,-16.054022,16.054022,11.535825,43.834165,159.81743)"
       spreadMethod="pad"
       id="linearGradient119">
      <stop
         style="stop-opacity:1;stop-color:#00e3ee icc-color(sRGB-IEC61966-2.1, 0, 0.8901825, 0.93331909);"
         offset="0"
         id="stop117" />
      <stop
         style="stop-opacity:1;stop-color:#e24cf7 icc-color(sRGB-IEC61966-2.1, 0.88626099, 0.29803467, 0.96861267);"
         offset="0.530516"
         id="stop118" />
      <stop
         style="stop-opacity:1;stop-color:#652d90 icc-color(sRGB-IEC61966-2.1, 0.39607239, 0.1764679, 0.56469727);"
         offset="1"
         id="stop119" />
    </linearGradient>
    <linearGradient
       x1="0"
       y1="0"
       x2="1"
       y2="0"
       gradientUnits="userSpaceOnUse"
       gradientTransform="matrix(2.5899862,-3.6043972,3.6043972,2.5899862,63.771622,144.04325)"
       spreadMethod="pad"
       id="linearGradient122">
      <stop
         style="stop-opacity:1;stop-color:#00e3ee icc-color(sRGB-IEC61966-2.1, 0, 0.8901825, 0.93331909);"
         offset="0"
         id="stop120" />
      <stop
         style="stop-opacity:1;stop-color:#e24cf7 icc-color(sRGB-IEC61966-2.1, 0.88626099, 0.29803467, 0.96861267);"
         offset="0.530516"
         id="stop121" />
      <stop
         style="stop-opacity:1;stop-color:#652d90 icc-color(sRGB-IEC61966-2.1, 0.39607239, 0.1764679, 0.56469727);"
         offset="1"
         id="stop122" />
    </linearGradient>
    <linearGradient
       x1="0"
       y1="0"
       x2="1"
       y2="0"
       gradientUnits="userSpaceOnUse"
       gradientTransform="matrix(4.9134856,-6.8379338,6.8379338,4.9134856,67.9519,149.05458)"
       spreadMethod="pad"
       id="linearGradient125">
      <stop
         style="stop-opacity:1;stop-color:#00e3ee icc-color(sRGB-IEC61966-2.1, 0, 0.8901825, 0.93331909);"
         offset="0"
         id="stop123" />
      <stop
         style="stop-opacity:1;stop-color:#e24cf7 icc-color(sRGB-IEC61966-2.1, 0.88626099, 0.29803467, 0.96861267);"
         offset="0.530516"
         id="stop124" />
      <stop
         style="stop-opacity:1;stop-color:#652d90 icc-color(sRGB-IEC61966-2.1, 0.39607239, 0.1764679, 0.56469727);"
         offset="1"
         id="stop125" />
    </linearGradient>
    <linearGradient
       x1="0"
       y1="0"
       x2="1"
       y2="0"
       gradientUnits="userSpaceOnUse"
       gradientTransform="matrix(7.7830269,-10.831379,10.831379,7.7830269,58.097354,153.96036)"
       spreadMethod="pad"
       id="linearGradient128">
      <stop
         style="stop-opacity:1;stop-color:#00e3ee icc-color(sRGB-IEC61966-2.1, 0, 0.8901825, 0.93331909);"
         offset="0"
         id="stop126" />
      <stop
         style="stop-opacity:1;stop-color:#e24cf7 icc-color(sRGB-IEC61966-2.1, 0.88626099, 0.29803467, 0.96861267);"
         offset="0.530516"
         id="stop127" />
      <stop
         style="stop-opacity:1;stop-color:#652d90 icc-color(sRGB-IEC61966-2.1, 0.39607239, 0.1764679, 0.56469727);"
         offset="1"
         id="stop128" />
    </linearGradient>
    <linearGradient
       x1="0"
       y1="0"
       x2="1"
       y2="0"
       gradientUnits="userSpaceOnUse"
       gradientTransform="matrix(11.079002,-15.418277,15.418277,11.079002,51.763268,159.27027)"
       spreadMethod="pad"
       id="linearGradient131">
      <stop
         style="stop-opacity:1;stop-color:#00e3ee icc-color(sRGB-IEC61966-2.1, 0, 0.8901825, 0.93331909);"
         offset="0"
         id="stop129" />
      <stop
         style="stop-opacity:1;stop-color:#e24cf7 icc-color(sRGB-IEC61966-2.1, 0.88626099, 0.29803467, 0.96861267);"
         offset="0.530516"
         id="stop130" />
      <stop
         style="stop-opacity:1;stop-color:#652d90 icc-color(sRGB-IEC61966-2.1, 0.39607239, 0.1764679, 0.56469727);"
         offset="1"
         id="stop131" />
    </linearGradient>
    <linearGradient
       x1="0"
       y1="0"
       x2="1"
       y2="0"
       gradientUnits="userSpaceOnUse"
       gradientTransform="matrix(19.81568,-27.57682,27.57682,19.81568,41.303897,142.65803)"
       spreadMethod="pad"
       id="linearGradient134">
      <stop
         style="stop-opacity:1;stop-color:#00e3ee icc-color(sRGB-IEC61966-2.1, 0, 0.8901825, 0.93331909);"
         offset="0"
         id="stop132" />
      <stop
         style="stop-opacity:1;stop-color:#e24cf7 icc-color(sRGB-IEC61966-2.1, 0.88626099, 0.29803467, 0.96861267);"
         offset="0.530516"
         id="stop133" />
      <stop
         style="stop-opacity:1;stop-color:#652d90 icc-color(sRGB-IEC61966-2.1, 0.39607239, 0.1764679, 0.56469727);"
         offset="1"
         id="stop134" />
    </linearGradient>
  </defs>
  <g
     inkscape:label="Layer 1"
     inkscape:groupmode="layer"
     id="layer1"
     transform="translate(-28.63812,-106.56949)">
    <g
       id="g5">
      <g
         id="g4">
        <path
           id="path88"
           d="m 0,0 h -13.727 v 42.69 c 0,9.949 0,21.913 0.252,31.105 -2.518,-9.192 -6.171,-21.156 -9.444,-30.979 L -36.897,0 h -15.994 l -14.104,42.942 c -3.149,9.697 -6.8,21.535 -9.193,30.727 0.251,-9.318 0.251,-21.03 0.251,-30.979 V 0 h -13.851 v 86.892 h 22.289 l 22.92,-74.551 22.919,74.551 H 0 Z"
           style="fill:#5d2cf9 icc-color(sRGB-IEC61966-2, 0.1, 0.36499023, 0.17298889, 0.97599792);fill-opacity:1;fill-rule:nonzero;stroke:none"
           transform="matrix(0.13832177,0,0,-0.13832177,81.7437,125.45345)"
           clip-path="url(#clipPath89)" />
        <path
           id="path90"
           d="M 0,0 H -60.068 V 86.892 H -1.259 V 75.936 H -46.217 V 48.987 H -4.785 V 38.031 H -46.217 V 11.082 H 0 Z"
           style="fill:#5d2cf9 icc-color(sRGB-IEC61966-2, 0.1, 0.36499023, 0.17298889, 0.97599792);fill-opacity:1;fill-rule:nonzero;stroke:none"
           transform="matrix(0.13832177,0,0,-0.13832177,92.960458,125.45345)"
           clip-path="url(#clipPath91)" />
        <path
           id="path92"
           d="m 0,0 c 3.526,0 5.667,0 7.808,0.252 7.555,0.755 13.222,5.037 13.222,14.23 0,9.193 -4.659,12.971 -12.089,13.978 -2.266,0.378 -4.534,0.504 -8.059,0.504 H -14.482 V 0 Z M 37.527,-46.972 H 22.29 c -2.267,5.667 -3.4,11.082 -4.408,20.653 -1.133,9.193 -4.533,14.985 -12.467,15.489 -2.141,0.126 -4.281,0.126 -6.423,0.126 H -14.482 V -46.972 H -28.334 V 39.92 H 1.637 c 4.66,0 7.807,0 11.964,-0.503 12.592,-1.638 22.038,-8.312 22.038,-23.172 0,-11.334 -6.927,-18.008 -16.119,-20.779 7.807,-3.4 11.082,-10.955 11.962,-20.023 1.008,-10.956 2.519,-17.63 6.045,-22.415"
           style="fill:#5d2cf9 icc-color(sRGB-IEC61966-2, 0.1, 0.36499023, 0.17298889, 0.97599792);fill-opacity:1;fill-rule:nonzero;stroke:none"
           transform="matrix(0.13832177,0,0,-0.13832177,99.021485,118.95617)"
           clip-path="url(#clipPath93)" />
        <path
           id="path94"
           d="m 0,0 h -60.068 v 86.892 h 13.851 V 11.459 H 0 Z"
           style="fill:#5d2cf9 icc-color(sRGB-IEC61966-2, 0.1, 0.36499023, 0.17298889, 0.97599792);fill-opacity:1;fill-rule:nonzero;stroke:none"
           transform="matrix(0.13832177,0,0,-0.13832177,114.47124,125.45345)"
           clip-path="url(#clipPath95)" />
        <path
           id="path96"
           d="m 776.085,589.733 h 13.852 v -86.892 h -13.852 z"
           style="fill:#5d2cf9 icc-color(sRGB-IEC61966-2, 0.1, 0.36499023, 0.17298889, 0.97599792);fill-opacity:1;fill-rule:nonzero;stroke:none"
           transform="matrix(0.13832177,0,0,-0.13832177,9.0547821,195.00734)"
           clip-path="url(#clipPath97)" />
        <path
           id="path98"
           d="m 0,0 v -37.653 h -13.853 v 36.142 c 0,3.148 0,6.045 -0.251,9.445 -0.63,7.555 -4.66,12.844 -14.105,12.844 -9.57,0 -17.378,-7.555 -17.378,-28.46 v -29.971 h -13.852 v 66.869 h 13.852 V 18.134 l 4.533,7.682 c 5.289,4.03 10.2,5.163 16.875,5.163 14.356,0 22.541,-7.43 23.801,-19.142 C -0.126,8.438 0,5.415 0,0"
           style="fill:#5d2cf9 icc-color(sRGB-IEC61966-2, 0.1, 0.36499023, 0.17298889, 0.97599792);fill-opacity:1;fill-rule:nonzero;stroke:none"
           transform="matrix(0.13832177,0,0,-0.13832177,128.9976,120.24517)"
           clip-path="url(#clipPath99)" />
      </g>
      <g
         id="g3">
        <g
           id="g1">
          <path
             id="path101"
             d="m 30.611365,123.13554 c 2.396735,0.66608 3.820746,2.02689 4.482911,4.23946 v 0 c 0.654997,-2.218 2.081397,-3.57968 4.489642,-4.24402 v 0 c -2.433437,-0.64826 -3.847241,-2.04556 -4.488122,-4.26747 v 0 c -0.661947,2.23255 -2.079878,3.61269 -4.484431,4.27203"
             style="fill:url(#linearGradient101);stroke:none;stroke-width:0.217174" />
          <path
             id="path104"
             d="m 28.63812,118.82333 c 1.151892,0.3199 1.835991,0.97402 2.154151,2.03731 v 0 c 0.314686,-1.06589 1.000305,-1.72002 2.157626,-2.03948 v 0 c -1.169483,-0.31165 -1.849021,-0.98315 -2.156974,-2.05056 v 0 c -0.317726,1.07262 -0.999436,1.73587 -2.154803,2.05273"
             style="fill:url(#linearGradient104);stroke:none;stroke-width:0.217174" />
          <path
             id="path107"
             d="m 32.787016,115.50317 c 0.815055,0.22652 1.299137,0.68931 1.524346,1.4416 v 0 c 0.222821,-0.75424 0.707771,-1.21726 1.526952,-1.44312 v 0 c -0.827651,-0.22065 -1.308474,-0.69583 -1.526517,-1.45137 v 0 c -0.224993,0.75945 -0.70712,1.22855 -1.524781,1.45289"
             style="fill:url(#linearGradient107);stroke:none;stroke-width:0.217174" />
        </g>
        <g
           id="g2">
          <path
             id="path110"
             d="m 40.693244,139.77934 v 2.84129 c -0.380055,0.16657 -0.646745,0.54576 -0.646745,0.98684 v 0 c 0,0.59462 0.483647,1.07827 1.078053,1.07827 v 0 c 0.59484,0 1.07827,-0.48365 1.07827,-1.07827 v 0 c 0,-0.44108 -0.266473,-0.82027 -0.646745,-0.98684 v 0 -2.84129 z m -0.287322,3.82813 c 0,-0.2339 0.1138,-0.43999 0.287322,-0.57138 v 0 c 0.120532,-0.0914 0.268862,-0.14747 0.431308,-0.14747 v 0 c 0.162446,0 0.310994,0.056 0.431525,0.14747 v 0 c 0.173522,0.13139 0.287322,0.33748 0.287322,0.57138 v 0 c 0,0.39635 -0.322504,0.71885 -0.718847,0.71885 v 0 c -0.396126,0 -0.71863,-0.3225 -0.71863,-0.71885"
             style="fill:url(#linearGradient110);stroke:none;stroke-width:0.217174" />
          <path
             id="path113"
             d="m 44.917934,139.77934 -0.0072,1.95023 c -0.372454,0.17004 -0.633063,0.5438 -0.633063,0.97945 v 0 c 0,0.4324 0.257352,0.80354 0.625897,0.97533 v 0 l -0.01433,3.85853 c -0.300352,0.14551 -0.524693,0.42371 -0.590714,0.76033 v 0 l -4.19168,1.98259 c -0.19676,-0.20654 -0.472354,-0.33684 -0.779221,-0.33684 v 0 c -0.594406,0 -1.07827,0.48364 -1.07827,1.07805 v 0 c 0,0.59484 0.483864,1.07827 1.07827,1.07827 v 0 c 0.568779,0 1.03136,-0.44412 1.070669,-1.00312 v 0 l 4.103507,-1.94089 c 0.110541,0.14463 0.254094,0.26191 0.422621,0.33618 v 0 4.07702 c -0.380055,0.16678 -0.646745,0.54575 -0.646745,0.98683 v 0 c 0,0.59441 0.483647,1.07806 1.078053,1.07806 v 0 c 0.594623,0 1.078487,-0.48365 1.078487,-1.07806 v 0 c 0,-0.44108 -0.266907,-0.82005 -0.646962,-0.98683 v 0 -4.07702 c 0.380055,-0.16679 0.646962,-0.54576 0.646962,-0.98705 v 0 c 0,-0.44087 -0.266907,-0.81984 -0.646962,-0.98685 v 0 -3.35533 h -0.0228 l 0.0017,-0.46324 c 0.391348,-0.1618 0.668028,-0.54684 0.668028,-0.99596 v 0 c 0,-0.44651 -0.273205,-0.83048 -0.660427,-0.99401 v 0 l 0.007,-1.93567 z m -0.01281,3.485 c -0.162229,-0.13183 -0.26821,-0.33054 -0.26821,-0.55532 v 0 c 0,-0.22695 0.107719,-0.42697 0.272337,-0.55879 v 0 c 0.12292,-0.0988 0.276897,-0.16006 0.44651,-0.16006 v 0 c 0.155497,0 0.298614,0.0506 0.416106,0.13487 v 0 c 0.182643,0.13052 0.302958,0.34292 0.302958,0.58398 v 0 c 0,0.2428 -0.122052,0.45715 -0.307085,0.58724 v 0 c -0.116839,0.0821 -0.258437,0.13139 -0.411979,0.13139 v 0 c -0.171568,0 -0.326847,-0.0628 -0.450637,-0.16331 m 0.01933,5.81744 c -0.03192,-0.0241 -0.06189,-0.0495 -0.08882,-0.0782 v 0 c -0.122269,-0.129 -0.198714,-0.30165 -0.198714,-0.4932 v 0 c 0,-0.1668 0.05972,-0.3186 0.155497,-0.44065 v 0 c 0.02867,-0.0367 0.06037,-0.0699 0.09556,-0.10033 v 0 c 0.01173,-0.0104 0.02389,-0.0204 0.03648,-0.03 v 0 c 0.120531,-0.0917 0.268861,-0.14768 0.431308,-0.14768 v 0 c 0.146158,0 0.28124,0.0443 0.394822,0.11901 v 0 c 0.01303,0.009 0.02432,0.0191 0.0367,0.0287 v 0 c 0.173522,0.13096 0.287539,0.33728 0.287539,0.57096 v 0 c 0,0.23411 -0.114017,0.43999 -0.287539,0.57138 v 0 c -0.120749,0.0914 -0.269079,0.14768 -0.431526,0.14768 v 0 c -0.162446,0 -0.310776,-0.0563 -0.431308,-0.14768 m -5.81093,2.62803 c -0.291231,-0.0917 -0.504713,-0.36138 -0.504713,-0.6828 v 0 c 0,-0.0115 0.0028,-0.0228 0.0035,-0.0343 v 0 c 0.01846,-0.38005 0.330756,-0.68432 0.715372,-0.68432 v 0 c 0.160492,0 0.307301,0.0547 0.427181,0.14399 v 0 c 0.175912,0.13096 0.291665,0.33901 0.291665,0.57465 v 0 c 0,0.0945 -0.01933,0.18394 -0.05234,0.26646 v 0 c -0.106415,0.26453 -0.364635,0.4526 -0.666507,0.4526 v 0 c -0.07514,0 -0.145941,-0.0148 -0.214134,-0.0363 m 5.523392,2.85149 c 0,-0.23411 0.114234,-0.43999 0.287539,-0.57138 v 0 c 0.120531,-0.0912 0.268861,-0.14746 0.431308,-0.14746 v 0 c 0.162446,0 0.310776,0.0563 0.431525,0.14746 v 0 c 0.173522,0.13139 0.287539,0.33727 0.287539,0.57138 v 0 c 0,0.39635 -0.322721,0.71863 -0.719064,0.71863 v 0 c -0.396343,0 -0.718847,-0.32228 -0.718847,-0.71863"
             style="fill:url(#linearGradient113);stroke:none;stroke-width:0.217174" />
          <path
             id="path116"
             d="m 36.663576,139.77934 v 3.94128 c -0.36659,0.16092 -0.624375,0.52013 -0.642401,0.94123 v 0 l -3.336013,1.42554 c -0.196543,-0.20502 -0.471268,-0.33445 -0.777049,-0.33445 v 0 c -0.594407,0 -1.078271,0.48386 -1.078271,1.07827 v 0 c 0,0.59461 0.483864,1.07826 1.078271,1.07826 v 0 c 0.570951,0 1.035052,-0.44759 1.071103,-1.00964 v 0 l 3.352084,-1.43248 c 0.09469,0.0953 0.207618,0.172 0.332276,0.22673 v 0 1.82947 c -0.380054,0.16701 -0.646962,0.54598 -0.646962,0.98685 v 0 c 0,0.59462 0.483647,1.07827 1.078487,1.07827 v 0 c 0.594406,0 1.078053,-0.48365 1.078053,-1.07827 v 0 c 0,-0.44087 -0.26669,-0.81984 -0.646745,-0.98685 v 0 -1.82947 c 0.380055,-0.16657 0.646745,-0.54554 0.646745,-0.98684 v 0 c 0,-0.44064 -0.26669,-0.81961 -0.646745,-0.98662 v 0 -3.94128 z m 0.03952,5.52948 c -0.0139,-0.009 -0.02628,-0.02 -0.03952,-0.03 v 0 c -0.173522,-0.13139 -0.287538,-0.3377 -0.287538,-0.5716 v 0 c 0,-0.0743 0.01455,-0.14485 0.03583,-0.21217 v 0 c 0.04517,-0.14486 0.133345,-0.2693 0.251705,-0.35921 v 0 c 0.120532,-0.091 0.269079,-0.14725 0.431525,-0.14725 v 0 c 0.162447,0 0.310559,0.0563 0.431308,0.14725 v 0 c 0.173305,0.13161 0.287322,0.3377 0.287322,0.57138 v 0 c 0,0.2339 -0.114017,0.44021 -0.287322,0.5716 v 0 c -0.120749,0.091 -0.268861,0.14747 -0.431308,0.14747 v 0 c -0.144638,0 -0.279069,-0.0439 -0.391999,-0.11749 m -5.513837,1.52239 c 0,-0.39656 0.322504,-0.71885 0.718848,-0.71885 v 0 c 0.153324,0 0.294705,0.0491 0.411327,0.13117 v 0 c 0.185467,0.13031 0.307302,0.34466 0.307302,0.58768 v 0 c 0,0.0838 -0.01694,0.1631 -0.04343,0.2378 v 0 c -0.09881,0.27929 -0.362464,0.48126 -0.675194,0.48126 v 0 c -0.396344,0 -0.718847,-0.3225 -0.718847,-0.71906 m 5.186772,1.67919 c 0,-0.23368 0.114016,-0.43999 0.287538,-0.57095 v 0 c 0.120532,-0.0917 0.269079,-0.14768 0.431525,-0.14768 v 0 c 0.162447,0 0.310559,0.056 0.431308,0.14768 v 0 c 0.173305,0.13096 0.287322,0.33727 0.287322,0.57095 v 0 c 0,0.39678 -0.322504,0.71906 -0.71863,0.71906 v 0 c -0.396343,0 -0.719063,-0.32228 -0.719063,-0.71906"
             style="fill:url(#linearGradient116);stroke:none;stroke-width:0.217174" />
          <path
             id="path119"
             d="m 48.962587,139.77934 v 9.83821 c -0.380055,0.167 -0.646962,0.54576 -0.646962,0.98684 v 0 c 0,0.59463 0.483647,1.07827 1.07827,1.07827 v 0 c 0.04322,0 0.08448,-0.008 0.126613,-0.0128 v 0 l 1.387743,2.27425 c -0.122921,0.17526 -0.196326,0.38744 -0.196326,0.61721 v 0 c 0,0.0224 0.0052,0.0432 0.0065,0.0654 v 0 l -3.492813,1.79451 v 3.829 c -0.380272,0.16701 -0.646745,0.54598 -0.646745,0.98684 v 0 c 0,0.59462 0.48343,1.07827 1.078053,1.07827 v 0 c 0.594623,0 1.078052,-0.48365 1.078052,-1.07827 v 0 c 0,-0.44086 -0.266472,-0.81983 -0.646961,-0.98684 v 0 -3.30235 l 3.025454,-1.55388 c 0.07493,0.061 0.155714,0.11467 0.24519,0.15419 v 0 3.26456 c -0.379838,0.16658 -0.646745,0.54555 -0.646745,0.98684 v 0 c 0,0.59441 0.483864,1.07827 1.078052,1.07827 v 0 c 0.594841,0 1.078488,-0.48386 1.078488,-1.07827 v 0 c 0,-0.44129 -0.266907,-0.82026 -0.646962,-0.98705 v 0 -3.26435 c 0.380055,-0.16701 0.646962,-0.54576 0.646962,-0.98684 v 0 c 0,-0.59462 -0.483647,-1.07848 -1.078488,-1.07848 v 0 c -0.04908,0 -0.09621,0.008 -0.143334,0.0148 v 0 l -1.381445,-2.26361 c 0.128784,-0.17743 0.206967,-0.39396 0.206967,-0.62959 v 0 c 0,-0.44108 -0.266908,-0.81983 -0.646745,-0.98684 v 0 -9.83821 z m 0.340746,11.53455 c -0.353342,-0.0452 -0.628067,-0.34421 -0.628067,-0.7095 v 0 c 0,-0.2339 0.113799,-0.44021 0.287321,-0.57139 v 0 c 0.120314,-0.0912 0.269079,-0.14745 0.431308,-0.14745 v 0 c 0.162446,0 0.310776,0.0563 0.431525,0.14745 v 0 c 0.173522,0.13118 0.287322,0.33749 0.287322,0.57139 v 0 c 0,0.10077 -0.02128,0.19654 -0.05864,0.28363 v 0 c -0.110542,0.25539 -0.364418,0.435 -0.66021,0.435 v 0 c -0.03127,0 -0.06059,-0.005 -0.09056,-0.009 m 2.175434,3.89241 c -0.04257,-0.0211 -0.08253,-0.0454 -0.120097,-0.0738 v 0 c -0.173523,-0.13118 -0.287321,-0.33728 -0.287321,-0.57117 v 0 c 0,-0.0419 0.0054,-0.0821 0.01238,-0.12206 v 0 c 0.0085,-0.0495 0.0215,-0.0971 0.03974,-0.14268 v 0 c 0.105764,-0.2656 0.363984,-0.45411 0.666507,-0.45411 v 0 c 0.02454,0 0.04756,0.004 0.07145,0.007 v 0 c 0.362464,0.0361 0.647397,0.33944 0.647397,0.71146 v 0 c 0,0.2339 -0.1138,0.44 -0.287322,0.57117 v 0 c -0.120531,0.0914 -0.269079,0.14746 -0.431525,0.14746 v 0 c -0.111844,0 -0.21674,-0.028 -0.31121,-0.0736 m -0.407419,4.59323 c 0,-0.23411 0.113799,-0.43999 0.287321,-0.57138 v 0 c 0.120532,-0.0914 0.269079,-0.14746 0.431308,-0.14746 v 0 c 0.162446,0 0.310994,0.056 0.431525,0.14746 v 0 c 0.173522,0.13139 0.287322,0.33727 0.287322,0.57138 v 0 c 0,0.39635 -0.322287,0.71863 -0.718847,0.71863 v 0 c -0.396125,0 -0.718629,-0.32228 -0.718629,-0.71863 m -4.133261,1.43748 c 0,-0.2339 0.114234,-0.43999 0.287539,-0.57138 v 0 c 0.120532,-0.0912 0.268645,-0.14747 0.431309,-0.14747 v 0 c 0.162445,0 0.310776,0.0563 0.43109,0.14747 v 0 c 0.17374,0.13139 0.287756,0.33748 0.287756,0.57138 v 0 c 0,0.39635 -0.322721,0.71885 -0.718846,0.71885 v 0 c -0.396344,0 -0.718848,-0.3225 -0.718848,-0.71885"
             style="fill:url(#linearGradient119);stroke:none;stroke-width:0.217174" />
          <path
             id="path122"
             d="m 64.580889,139.77934 v 2.84129 c -0.380272,0.16657 -0.646962,0.54576 -0.646962,0.98684 v 0 c 0,0.59462 0.483647,1.07827 1.078487,1.07827 v 0 c 0.594406,0 1.078053,-0.48365 1.078053,-1.07827 v 0 c 0,-0.44108 -0.26669,-0.82027 -0.646745,-0.98684 v 0 -2.84129 z m -0.287539,3.82813 c 0,-0.2339 0.114017,-0.43999 0.287539,-0.57138 v 0 c 0.120532,-0.0914 0.269079,-0.14747 0.431525,-0.14747 v 0 c 0.162446,0 0.31056,0.056 0.431308,0.14747 v 0 c 0.173305,0.13139 0.287322,0.33748 0.287322,0.57138 v 0 c 0,0.39635 -0.322504,0.71885 -0.71863,0.71885 v 0 c -0.39656,0 -0.719064,-0.3225 -0.719064,-0.71885"
             style="fill:url(#linearGradient122);stroke:none;stroke-width:0.217174" />
          <path
             id="path125"
             d="m 68.610557,139.77934 v 3.94128 c -0.380055,0.16701 -0.646962,0.54598 -0.646962,0.98662 v 0 c 0,0.4413 0.266907,0.82005 0.646962,0.98684 v 0 1.82947 c -0.380055,0.16701 -0.646962,0.54598 -0.646962,0.98685 v 0 c 0,0.59462 0.483864,1.07827 1.07827,1.07827 v 0 c 0.59484,0 1.078053,-0.48365 1.078053,-1.07827 v 0 c 0,-0.44087 -0.26669,-0.81984 -0.646745,-0.98685 v 0 -1.82947 c 0.124875,-0.0547 0.237588,-0.13139 0.332277,-0.22673 v 0 l 3.351866,1.43248 c 0.03583,0.56205 0.499936,1.00964 1.071103,1.00964 v 0 c 0.594624,0 1.078271,-0.48365 1.078271,-1.07826 v 0 c 0,-0.59441 -0.483647,-1.07827 -1.078271,-1.07827 v 0 c -0.305564,0 -0.580723,0.12943 -0.777048,0.33445 v 0 l -3.335797,-1.42554 c -0.01803,-0.4211 -0.275594,-0.78031 -0.642401,-0.94123 v 0 -3.94128 z m 0,5.4995 c -0.173522,-0.13139 -0.287322,-0.33771 -0.287322,-0.5716 v 0 c 0,-0.23368 0.1138,-0.43978 0.287322,-0.57139 v 0 c 0.120531,-0.091 0.268861,-0.14724 0.431308,-0.14724 v 0 c 0.162446,0 0.310993,0.0563 0.431308,0.14724 v 0 c 0.118359,0.0899 0.20675,0.21436 0.251922,0.35921 v 0 c 0.02128,0.0673 0.03562,0.13791 0.03562,0.21218 v 0 c 0,0.23389 -0.113799,0.44021 -0.287538,0.5716 v 0 c -0.01303,0.01 -0.02563,0.0206 -0.03931,0.03 v 0 c -0.113147,0.0736 -0.247361,0.11749 -0.391999,0.11749 v 0 c -0.162447,0 -0.310777,-0.0564 -0.431308,-0.14746 m 4.942885,1.79017 c -0.02671,-0.0747 -0.04387,-0.15398 -0.04387,-0.23781 v 0 c 0,-0.24302 0.122269,-0.45737 0.307301,-0.58767 v 0 c 0.11684,-0.0821 0.258437,-0.13118 0.411545,-0.13118 v 0 c 0.396343,0 0.719064,0.32229 0.719064,0.71885 v 0 c 0,0.39656 -0.322721,0.71907 -0.719064,0.71907 v 0 c -0.312514,0 -0.576598,-0.20198 -0.674977,-0.48126 m -5.230207,1.44138 c 0,-0.23368 0.113799,-0.43999 0.287321,-0.57095 v 0 c 0.120532,-0.0916 0.268862,-0.14767 0.431308,-0.14767 v 0 c 0.162447,0 0.310994,0.056 0.431309,0.14767 v 0 c 0.173739,0.13096 0.287538,0.33727 0.287538,0.57095 v 0 c 0,0.39678 -0.322504,0.71906 -0.718847,0.71906 v 0 c -0.396126,0 -0.718629,-0.32228 -0.718629,-0.71906"
             style="fill:url(#linearGradient125);stroke:none;stroke-width:0.217174" />
          <path
             id="path128"
             d="m 60.355981,139.77934 0.0072,1.93567 c -0.387873,0.16353 -0.660644,0.54728 -0.660644,0.99401 v 0 c 0,0.44912 0.27668,0.83416 0.668028,0.99596 v 0 l 0.002,0.46324 h -0.02324 v 3.35533 c -0.380055,0.16701 -0.646745,0.54598 -0.646745,0.98685 v 0 c 0,0.44129 0.26669,0.82005 0.646745,0.98705 v 0 4.07702 c -0.380055,0.16678 -0.646745,0.54575 -0.646745,0.98683 v 0 c 0,0.59441 0.483647,1.07806 1.07827,1.07806 v 0 c 0.594406,0 1.07827,-0.48365 1.07827,-1.07806 v 0 c 0,-0.44108 -0.266907,-0.82005 -0.646962,-0.98683 v 0 -4.07702 c 0.168745,-0.0741 0.312297,-0.19155 0.422839,-0.3364 v 0 l 4.103724,1.94111 c 0.03931,0.559 0.501672,1.00312 1.070452,1.00312 v 0 c 0.59484,0 1.078487,-0.48343 1.078487,-1.07827 v 0 c 0,-0.59441 -0.483647,-1.07805 -1.078487,-1.07805 v 0 c -0.306868,0 -0.582462,0.1303 -0.779004,0.33684 v 0 l -4.192114,-1.98259 c -0.06602,-0.33662 -0.290145,-0.6146 -0.59028,-0.76033 v 0 l -0.01455,-3.85853 c 0.368545,-0.17179 0.625896,-0.54315 0.625896,-0.97533 v 0 c 0,-0.43565 -0.261044,-0.80941 -0.633063,-0.97945 v 0 l -0.0074,-1.95023 z m 0.01281,3.51692 c -0.185032,-0.12987 -0.307084,-0.34444 -0.307084,-0.58724 v 0 c 0,-0.24106 0.120314,-0.45346 0.302958,-0.58398 v 0 c 0.117708,-0.0843 0.260609,-0.13487 0.416106,-0.13487 v 0 c 0.169396,0 0.32359,0.0614 0.446728,0.16006 v 0 c 0.164617,0.13182 0.272119,0.33206 0.272119,0.55879 v 0 c 0,0.22478 -0.105981,0.42327 -0.26821,0.55532 v 0 c -0.123573,0.10054 -0.27907,0.16331 -0.450637,0.16331 v 0 c -0.153325,0 -0.294922,-0.0493 -0.41198,-0.13139 m -0.01955,5.78552 c -0.173305,-0.13139 -0.287539,-0.33727 -0.287539,-0.57138 v 0 c 0,-0.23368 0.114234,-0.44 0.287539,-0.57096 v 0 c 0.01238,-0.01 0.02389,-0.02 0.03692,-0.0287 v 0 c 0.113365,-0.0747 0.248881,-0.11901 0.394605,-0.11901 v 0 c 0.162446,0 0.310777,0.056 0.431308,0.14768 v 0 c 0.01281,0.01 0.02476,0.0198 0.03692,0.0304 v 0 c 0.03475,0.0302 0.06646,0.0632 0.09491,0.0995 v 0 c 0.09599,0.12227 0.155714,0.27429 0.155714,0.44108 v 0 c 0,0.19155 -0.07623,0.3642 -0.198497,0.49298 v 0 c -0.02736,0.0289 -0.05733,0.0543 -0.08904,0.0784 v 0 c -0.120531,0.0914 -0.268862,0.14767 -0.431308,0.14767 v 0 c -0.162446,0 -0.310776,-0.0563 -0.431525,-0.14767 m 5.793557,2.21169 c -0.03301,-0.0825 -0.05234,-0.172 -0.05234,-0.26647 v 0 c 0,-0.23563 0.115754,-0.44369 0.291665,-0.57464 v 0 c 0.11988,-0.0893 0.266473,-0.14399 0.426965,-0.14399 v 0 c 0.384832,0 0.697128,0.30427 0.715371,0.68432 v 0 c 8.62e-4,0.0115 0.0037,0.0228 0.0037,0.0343 v 0 c 0,0.32142 -0.213482,0.59115 -0.50493,0.68279 v 0 c -0.06798,0.0215 -0.138774,0.0363 -0.214134,0.0363 v 0 c -0.301872,0 -0.559875,-0.18807 -0.66629,-0.45259 m -6.081096,3.26782 c 0,-0.23411 0.114234,-0.43999 0.287539,-0.57138 v 0 c 0.120749,-0.0912 0.269079,-0.14746 0.431525,-0.14746 v 0 c 0.162446,0 0.310777,0.0563 0.431308,0.14746 v 0 c 0.173522,0.13139 0.287539,0.33727 0.287539,0.57138 v 0 c 0,0.39635 -0.322721,0.71863 -0.718847,0.71863 v 0 c -0.39656,0 -0.719064,-0.32228 -0.719064,-0.71863"
             style="fill:url(#linearGradient128);stroke:none;stroke-width:0.217174" />
          <path
             id="path131"
             d="m 56.311546,139.77934 v 9.83821 c -0.380055,0.167 -0.646962,0.54576 -0.646962,0.98684 v 0 c 0,0.23563 0.0784,0.45215 0.206966,0.62959 v 0 l -1.38101,2.26361 c -0.04756,-0.007 -0.09469,-0.0148 -0.143769,-0.0148 v 0 c -0.594624,0 -1.078271,0.48387 -1.078271,1.07849 v 0 c 0,0.44108 0.266907,0.81983 0.646962,0.98684 v 0 3.26456 c -0.380055,0.16657 -0.646962,0.54554 -0.646962,0.98684 v 0 c 0,0.5944 0.483647,1.07827 1.078271,1.07827 v 0 c 0.594406,0 1.078269,-0.48387 1.078269,-1.07827 v 0 c 0,-0.4413 -0.266906,-0.82027 -0.646744,-0.98705 v 0 -3.26435 c 0.08948,-0.0393 0.170264,-0.0932 0.245189,-0.1542 v 0 l 3.025237,1.55389 v 3.30234 c -0.380271,0.16701 -0.647178,0.54598 -0.647178,0.98685 v 0 c 0,0.59462 0.483864,1.07827 1.078704,1.07827 v 0 c 0.594406,0 1.077836,-0.48365 1.077836,-1.07827 v 0 c 0,-0.44087 -0.266473,-0.81984 -0.646963,-0.98685 v 0 -3.82899 l -3.492813,-1.79451 c 0.0013,-0.0222 0.0067,-0.043 0.0067,-0.0654 v 0 c 0,-0.22977 -0.07341,-0.44195 -0.196543,-0.61721 v 0 l 1.387961,-2.27425 c 0.04213,0.005 0.08318,0.0128 0.126396,0.0128 v 0 c 0.594622,0 1.078269,-0.48365 1.078269,-1.07827 v 0 c 0,-0.44108 -0.266906,-0.81984 -0.646745,-0.98684 v 0 -9.83821 z m -0.228685,11.10868 c -0.03757,-0.0871 -0.05885,-0.18286 -0.05885,-0.28363 v 0 c 0,-0.2339 0.114017,-0.44021 0.287539,-0.57139 v 0 c 0.120532,-0.0912 0.269079,-0.14745 0.431309,-0.14745 v 0 c 0.162446,0 0.310776,0.0563 0.431525,0.14745 v 0 c 0.173305,0.13118 0.287539,0.33749 0.287539,0.57139 v 0 c 0,0.36529 -0.27516,0.66434 -0.628285,0.7095 v 0 c -0.02997,0.004 -0.0595,0.009 -0.09078,0.009 v 0 c -0.295575,0 -0.549669,-0.17961 -0.659993,-0.435 m -2.167399,4.24445 c -0.173522,-0.13117 -0.287756,-0.33727 -0.287756,-0.57117 v 0 c 0,-0.37202 0.285367,-0.67541 0.648048,-0.71146 v 0 c 0.02367,-0.003 0.04669,-0.007 0.07102,-0.007 v 0 c 0.30274,0 0.560961,0.18851 0.666725,0.45411 v 0 c 0.01802,0.0456 0.03127,0.0932 0.03974,0.14268 v 0 c 0.0069,0.04 0.01238,0.0801 0.01238,0.12206 v 0 c 0,0.23389 -0.114017,0.43999 -0.287322,0.57117 v 0 c -0.03757,0.0284 -0.07753,0.0528 -0.120314,0.0738 v 0 c -0.09425,0.0456 -0.199149,0.0736 -0.311211,0.0736 v 0 c -0.162446,0 -0.310993,-0.056 -0.431308,-0.14745 m -0.287756,4.66707 c 0,-0.23411 0.114234,-0.44 0.287756,-0.57139 v 0 c 0.120315,-0.0914 0.268862,-0.14746 0.431308,-0.14746 v 0 c 0.162447,0 0.310559,0.056 0.431525,0.14746 v 0 c 0.173305,0.13139 0.287322,0.33728 0.287322,0.57139 v 0 c 0,0.39634 -0.322504,0.71863 -0.718847,0.71863 v 0 c -0.396343,0 -0.719064,-0.32229 -0.719064,-0.71863 m 4.133477,1.43748 c 0,-0.23391 0.114017,-0.44 0.287539,-0.57139 v 0 c 0.120531,-0.0912 0.268645,-0.14746 0.431525,-0.14746 v 0 c 0.162447,0 0.310559,0.0563 0.430874,0.14746 v 0 c 0.173522,0.13139 0.287756,0.33748 0.287756,0.57139 v 0 c 0,0.39634 -0.322721,0.71884 -0.71863,0.71884 v 0 c -0.39656,0 -0.719064,-0.3225 -0.719064,-0.71884"
             style="fill:url(#linearGradient131);stroke:none;stroke-width:0.217174" />
        </g>
        <path
           id="path134"
           d="m 38.887657,109.24877 0.690832,1.91418 c 2.793077,-0.0297 4.793904,0.71276 5.93624,2.19823 v 0 c 2.045564,2.65843 0.88846,6.97368 0.876733,7.01516 v 0 l 0.345958,1.11606 0.568779,0.47757 -0.841984,0.28406 -0.702559,0.76467 -1.845112,7.51184 -9.178217,3.26131 h -5.773359 l 2.695566,1.75607 1.317596,0.85849 0.03822,0.21978 h 0.299266 l 2.143727,1.39686 h 1.204231 0.862833 7.39804 0.431308 15.425017 0.431308 7.398474 0.862617 0.804196 l 2.23494,-2.47513 1.585589,-1.75607 h -4.713333 l -9.115454,-3.25392 -2.944665,-13.50976 -0.564436,-0.73101 -3.372064,-1.71546 1.48178,-1.30956 0.180689,-1.40989 c -2.029928,-3.01807 -4.513749,-4.76524 -7.381318,-5.19199 v 0 c -0.467142,-0.0693 -0.927117,-0.10077 -1.376233,-0.10077 v 0 c -4.060724,-2.2e-4 -7.257094,2.55853 -7.405207,2.67928 m 2.291623,24.54308 4.006864,-1.4238 0.685836,-0.75881 1.842506,-7.50098 2.100727,-0.7082 0.348564,-1.84772 -1.537159,-1.28958 c 0.303827,-1.56018 0.753377,-5.40308 -1.394693,-8.20636 v 0 c -1.003996,-1.31022 -2.415194,-2.20193 -4.215569,-2.66842 v 0 c 1.2266,-0.478 2.751598,-0.82396 4.350651,-0.58246 v 0 c 1.997135,0.30187 3.791645,1.47678 5.344876,3.49585 v 0 l -1.940235,1.71459 0.224775,1.76888 4.33002,2.20237 2.963343,13.59467 0.691048,0.78552 3.98949,1.42445 1.887679,0.67367 0.01194,0.004 H 39.27097 Z"
           style="fill:url(#linearGradient134);stroke:none;stroke-width:0.217174" />
      </g>
    </g>
  </g>
</svg>
